<svg xmlns="http://www.w3.org/2000/svg" viewBox="0 0 393.75 325.99"><defs><style>.cls-1{fill:#fff;}</style></defs><title>back button wh</title><g id="Layer_2" data-name="Layer 2"><g id="Layer_1-2" data-name="Layer 1"><path class="cls-1" d="M57.57,101.08C70.82,114.33,83,126.49,95.12,138.6c2.93,2.91,5.25,6.1,5.81,10.31,1,7.61-2.24,14.29-8.64,17.69a16.76,16.76,0,0,1-19.88-3.09q-33.6-33.42-67-67c-7-7.09-7.25-17-.28-24q33.53-33.86,67.4-67.4a16.54,16.54,0,0,1,23.65-.18c6.69,6.56,6.86,17,0,24.06C85,40.39,73.6,51.59,62.28,62.86c-1.19,1.19-2.55,2.22-3.29,4.51H64.5q98.48,0,197,0c32.62,0,62.12,9.39,86.53,31.2,40.65,36.32,55,82,39.87,134.15-15,51.47-51.11,81.79-104,91.58a110.07,110.07,0,0,1-19.91,1.64q-77.67.09-155.35,0c-11.54,0-19-7.61-18.36-18.28A16.35,16.35,0,0,1,105,292.43c2.09-.19,4.21-.15,6.31-.15,50.38,0,100.76.07,151.14,0,40.36-.08,74.89-22.75,90-58.78C377.26,174,337,107.4,272.73,101.67c-3.32-.3-6.65-.56-10-.56q-100.06,0-200.11,0Z"/></g></g></svg>