<svg xmlns="http://www.w3.org/2000/svg" viewBox="0 0 1548.6 1076.68"><defs><style>.cls-1{fill:#2655ac;}</style></defs><title>circle lP</title><g id="Layer_2" data-name="Layer 2"><g id="Layer_1-2" data-name="Layer 1"><path class="cls-1" d="M9.09,597.84c8.33,48.36,35.85,195.71,159,306,84.95,76.07,172.07,95.72,333,132,84.14,19,219.31,48.42,400.17,39,228.66-11.87,383.54-19.9,505.83-141C1530.53,811.56,1571.37,623,1536.8,462.55,1495,268.84,1355.08,162.64,1312.18,133.88,1198.81,57.91,1063,20.82,927.2,7.16S654.49,2.08,518.3,10.68C329.93,22.58,236.59,38.8,174.51,82.42,12.54,196.21-18.84,435.78,9.09,597.84Z"/></g></g></svg>