<svg id="Layer_1" data-name="Layer 1" xmlns="http://www.w3.org/2000/svg" xmlns:xlink="http://www.w3.org/1999/xlink" viewBox="0 0 1910.05 2510.69"><defs><style>.cls-1,.cls-2,.cls-21,.cls-26,.cls-28{fill:none;}.cls-1,.cls-10,.cls-11,.cls-14,.cls-16,.cls-24,.cls-25,.cls-26,.cls-28,.cls-29,.cls-31,.cls-36,.cls-37,.cls-38,.cls-39,.cls-40,.cls-41,.cls-44,.cls-45,.cls-5,.cls-6,.cls-7,.cls-8,.cls-9{stroke:#000;}.cls-1,.cls-10,.cls-11,.cls-14,.cls-16,.cls-20,.cls-21,.cls-24,.cls-25,.cls-26,.cls-28,.cls-29,.cls-31,.cls-36,.cls-37,.cls-38,.cls-39,.cls-40,.cls-41,.cls-44,.cls-45,.cls-5,.cls-6,.cls-7,.cls-8,.cls-9{stroke-miterlimit:10;}.cls-1,.cls-10,.cls-11,.cls-14,.cls-21,.cls-24,.cls-29,.cls-31,.cls-5{stroke-width:3.56px;}.cls-11,.cls-3{fill:#2744f5;}.cls-4{opacity:0.31;}.cls-16,.cls-27,.cls-29,.cls-36,.cls-37,.cls-38,.cls-39,.cls-40,.cls-41,.cls-45,.cls-5,.cls-7{fill:#fff;}.cls-6{fill:#f4b8b8;}.cls-25,.cls-26,.cls-28,.cls-6,.cls-7,.cls-8{stroke-width:2.37px;}.cls-8{fill:#353530;}.cls-16,.cls-20,.cls-9{stroke-width:1.19px;}.cls-10,.cls-15,.cls-20,.cls-25{fill:#ff3e3d;}.cls-12{clip-path:url(#clip-path);}.cls-13{clip-path:url(#clip-path-2);}.cls-17{clip-path:url(#clip-path-3);}.cls-18,.cls-24{fill:#ffa80e;}.cls-19{clip-path:url(#clip-path-4);}.cls-20,.cls-21{stroke:#ff3e3d;}.cls-22{clip-path:url(#clip-path-5);}.cls-23{clip-path:url(#clip-path-6);}.cls-25,.cls-26{stroke-linecap:square;}.cls-29{opacity:0.59;}.cls-30{clip-path:url(#clip-path-7);}.cls-31{fill:url(#linear-gradient);}.cls-32{fill:url(#linear-gradient-2);}.cls-33{fill:url(#linear-gradient-3);}.cls-34{fill:url(#linear-gradient-4);}.cls-35{fill:#afafaf;}.cls-36{stroke-width:5.34px;}.cls-37{stroke-width:4.9px;}.cls-38{stroke-width:3.77px;}.cls-39{stroke-width:3.46px;}.cls-40{stroke-width:4.44px;}.cls-41{stroke-width:4.07px;}.cls-42{fill:#278834;}.cls-43{fill:#029d52;}.cls-44{fill:#fe5b79;}</style><clipPath id="clip-path" transform="translate(-29.12 -272.09)"><path class="cls-1" d="M1670.52,2146.22l154.85,24.88-27.28,362.95s-5.93,113.87-46.26,167.24l-58.12-4.74s-23.72-3.56-21.35-60.49c0,0,42.7-228.92-188.59-348.71L1651,2143.82Z"/></clipPath><clipPath id="clip-path-2" transform="translate(-29.12 -272.09)"><path class="cls-1" d="M698.58,2646.73v60.49H230.07s-111.49,0-158.94-38v-77.1s15.42-21.35,93.7-23.72,115.05,0,202.82-52.19l256.2,45.07Z"/></clipPath><clipPath id="clip-path-3" transform="translate(-29.12 -272.09)"><polygon class="cls-1" points="1108.97 1471.3 1084.07 1681.24 1386.52 1569.75 1338.09 1438.69 1116.09 1458.26 1108.97 1471.3"/></clipPath><clipPath id="clip-path-4" transform="translate(-29.12 -272.09)"><polygon class="cls-1" points="1426.85 1054.98 1577.48 1430.98 1108.97 1471.3 1136.25 1283.9 1252.49 1038.38 1426.85 1054.98"/></clipPath><clipPath id="clip-path-5" transform="translate(-29.12 -272.09)"><path class="cls-2" d="M1182.51,1148.68s-104.38-47.44-177.92-115.05L867,1517.56l174.36,97.26Z"/></clipPath><clipPath id="clip-path-6" transform="translate(-29.12 -272.09)"><path class="cls-1" d="M1196.15,725.84s9.49,39.14,56.93,90.14L1213.94,951.2l-145.89-11.86,45.07-83s35.58-35.58,16.61-123.35Z"/></clipPath><clipPath id="clip-path-7" transform="translate(-29.12 -272.09)"><path class="cls-1" d="M1759,1764.27,1881.12,1852s30.84,144.7-86.59,170.8-168.43-60.49-176.73-79.47l36.77-145.89Z"/></clipPath><linearGradient id="linear-gradient" x1="160.88" y1="2044.32" x2="239.7" y2="1750.16" gradientTransform="matrix(-1, 0, 0, 1, 1930.8, -272.09)" gradientUnits="userSpaceOnUse"><stop offset="0" stop-color="#ff3e3d"/><stop offset="0.29" stop-color="#ff413d"/><stop offset="0.48" stop-color="#ff493d"/><stop offset="0.65" stop-color="#ff583d"/><stop offset="0.79" stop-color="#ff6d3d"/><stop offset="0.93" stop-color="#ff883d"/><stop offset="1" stop-color="#ff9b3d"/></linearGradient><linearGradient id="linear-gradient-2" x1="1339.91" y1="2152.24" x2="1359.35" y2="2122.3" gradientTransform="matrix(1, -0.06, -0.06, -1, -616.08, 3130.31)" gradientUnits="userSpaceOnUse"><stop offset="0" stop-color="#0d47a1"/><stop offset="1" stop-color="#0e71a0"/><stop offset="1" stop-color="#0e73a0"/></linearGradient><linearGradient id="linear-gradient-3" x1="1334.68" y1="2202.71" x2="1354.27" y2="2172.55" xlink:href="#linear-gradient-2"/><linearGradient id="linear-gradient-4" x1="1339.68" y1="2171.26" x2="1351.55" y2="2152.97" xlink:href="#linear-gradient-2"/></defs><title>ilustrasi_banner</title><path class="cls-3" d="M930.88,0h0a842,842,0,0,1,842,842V2510.69a0,0,0,0,1,0,0H88.88a0,0,0,0,1,0,0V842a842,842,0,0,1,842-842Z"/><ellipse class="cls-4" cx="1623.88" cy="2436.41" rx="173" ry="30.5"/><ellipse class="cls-4" cx="401" cy="2697.5" rx="50.5" ry="372" transform="translate(-2334.89 2758.13) rotate(-88.55)"/><ellipse class="cls-4" cx="1492.38" cy="626.41" rx="57" ry="14"/><ellipse class="cls-4" cx="435.88" cy="1544.91" rx="57" ry="14"/><ellipse class="cls-4" cx="1134.88" cy="2405.91" rx="57" ry="14"/><polygon class="cls-5" points="1311.15 460.27 1324.19 486.37 1281.49 510.09 1268.45 486.37 1311.15 460.27"/><path class="cls-6" d="M663,1077.52a2.82,2.82,0,0,0-1.19,0c-4.71.91-6.28,12.61-6.45,14l12.38-.94C667.71,1089.56,667.29,1078.47,663,1077.52Z" transform="translate(-29.12 -272.09)"/><path class="cls-6" d="M685.53,1072.77a2.82,2.82,0,0,0-1.19,0c-4.71.91-6.28,12.61-6.45,14l12.38-.94C690.25,1084.82,689.83,1073.73,685.53,1072.77Z" transform="translate(-29.12 -272.09)"/><path class="cls-6" d="M641.65,1081.08a2.82,2.82,0,0,0-1.19,0c-4.71.91-6.28,12.61-6.45,14l12.38-.94C646.36,1093.12,645.94,1082,641.65,1081.08Z" transform="translate(-29.12 -272.09)"/><path class="cls-6" d="M621.49,1084.63a2.82,2.82,0,0,0-1.19,0c-4.71.91-6.28,12.61-6.45,14l12.38-.94C626.2,1096.68,625.78,1085.59,621.49,1084.63Z" transform="translate(-29.12 -272.09)"/><path class="cls-7" d="M691.47,1087c-1.88-3-5.73-5.28-9.49-4.74a9,9,0,0,0-4.74,2.37c-7.21,6.39-5.42,24.61-5.2,26.65l19.52-1.6a125.25,125.25,0,0,0,1.09-13.19C692.84,1090.1,692.39,1088.47,691.47,1087Z" transform="translate(-29.12 -272.09)"/><path class="cls-7" d="M670.12,1091.75c-1.88-3-5.73-5.28-9.49-4.74a9,9,0,0,0-4.74,2.37c-7.21,6.39-5.42,24.61-5.2,26.65l19.52-1.6a125.25,125.25,0,0,0,1.09-13.19C671.49,1094.85,671,1093.21,670.12,1091.75Z" transform="translate(-29.12 -272.09)"/><path class="cls-7" d="M648.77,1094.12c-1.88-3-5.73-5.28-9.49-4.74a9,9,0,0,0-4.74,2.37c-7.21,6.39-5.42,24.61-5.2,26.65l19.52-1.6a125.25,125.25,0,0,0,1.09-13.19C650.14,1097.22,649.69,1095.59,648.77,1094.12Z" transform="translate(-29.12 -272.09)"/><path class="cls-7" d="M627.68,1097.68c-1.61-3-4.91-5.28-8.13-4.74a7.46,7.46,0,0,0-4.06,2.37c-6.18,6.39-4.64,24.61-4.45,26.65l16.73-1.6c.63-5.4.85-9.91.94-13.19C628.85,1100.78,628.47,1099.14,627.68,1097.68Z" transform="translate(-29.12 -272.09)"/><path d="M606.66,1178.93l-107.94,5.93a9.43,9.43,0,0,1-3-.59,11.26,11.26,0,0,1-3.56-2.37c-2.12-2.11-3.61-6.33-3.5-11.42l118-3.41Z" transform="translate(-29.12 -272.09)"/><path class="cls-8" d="M518.29,1121.4l174.36-17.79s8.3,0,8.3,8.3v47.44l-90.14,14.23-115.05,5.93a8.22,8.22,0,0,1-6.16-4,8.33,8.33,0,0,1,.23-7.82l21.35-41.51a9.71,9.71,0,0,1,3.56-3.56A9.6,9.6,0,0,1,518.29,1121.4Z" transform="translate(-29.12 -272.09)"/><path class="cls-9" d="M793.51,1075.13s-110.35,64.07-170.84,180.31c0,0-17.79,36.77-5.93,49.82l32,5.93,128.1-150.63L798,1085Z" transform="translate(-29.12 -272.09)"/><path class="cls-5" d="M706.25,1121.2c-21.71-3.21-45.86,1.7-60.61,18a63.64,63.64,0,0,0-9.72,14.62c-1,2.1-2.18,4.43-4.36,5.33-2.39,1-5.07-.16-7.4-1.28l-25.76-12.39c-4.59-2.21-9.31-4.46-14.38-4.94s-10.67,1.14-13.58,5.32c-3.26,4.69-2.27,11.34.88,16.1s8,8,12.86,11.11c7,4.45,14,8.76,21.26,12.71,6.6,3.59,13.52,6.92,21,8,12,1.73,24.15-2.65,34.87-8.38s20.72-12.91,32-17.53,24.43-6.44,35.4-1.19c10.37,5,17.28,15.45,27.67,20.37a140.55,140.55,0,0,0,9.3-27.66c.75-3.35,3.07-9.45,1.95-12.83s-5.32-4.58-8.29-6.07C742.47,1132,725,1124,706.25,1121.2Z" transform="translate(-29.12 -272.09)"/><path class="cls-10" d="M884.8,1138l-91.29-62.88s-80.7,192.17-176.77,230.12c0,0,106.75,53.37,163.68,65.24Z" transform="translate(-29.12 -272.09)"/><path class="cls-1" d="M1199.47,821.64c-76-36.38-161.07-61-244.29-47.72s-163,71.65-181.86,153.77c-15.39,67,10.68,136.69,44.87,196.36,72.95,127.33,183.92,230.18,308.36,308s262.37,131.68,402.4,175.57c39.11,12.26,79.38,24.24,112.07,49s56.63,65.59,49.11,105.88c-6.48,34.68-35.06,62.08-67.51,75.92s-68.52,16.21-103.78,16.9a1262,1262,0,0,1-580.89-129.65" transform="translate(-29.12 -272.09)"/><path class="cls-11" d="M1578.67,1060.91a372,372,0,0,1-15.86,46.85c-26.21,63.19-65.22,107.75-96.22,136.4l-64-206.38,161.31,15.42Z" transform="translate(-29.12 -272.09)"/><path class="cls-5" d="M1485.54,2580.7s29.08,29.26,76.52-25.3,72.35-194.52,72.35-194.52l-93.7-51L1466,2537.61Z" transform="translate(-29.12 -272.09)"/><path class="cls-5" d="M1670.52,2146.22l154.85,24.88-27.28,362.95s-5.93,113.87-46.26,167.24l-58.12-4.74s-23.72-3.56-21.35-60.49c0,0,42.7-228.92-188.59-348.71L1651,2143.82Z" transform="translate(-29.12 -272.09)"/><g class="cls-12"><path class="cls-10" d="M1553.76,2289.71s102,49.82,128.1,132.84,14.23,166.05,56.93,186.22l26.09-181.47V2152.13l-99.63-19Z" transform="translate(-29.12 -272.09)"/><path class="cls-5" d="M1755.4,2143.82l-16.61,384.3s-10.67,136.4-62.86,186.22l112.68,7.12,34.4-215.87,14.23-231.29V2156.87Z" transform="translate(-29.12 -272.09)"/><circle cx="1688.33" cy="2080.48" r="12.45"/><circle cx="1688.33" cy="2127.93" r="12.45"/><circle class="cls-5" cx="1648" cy="1976.11" r="40.92"/></g><path class="cls-1" d="M1670.52,2146.22l154.85,24.88-27.28,362.95s-5.93,113.87-46.26,167.24l-58.12-4.74s-23.72-3.56-21.35-60.49c0,0,42.7-228.92-188.59-348.71L1651,2143.82Z" transform="translate(-29.12 -272.09)"/><path d="M1210.38,1686.58s-21.35,128.1,24.91,182.66,275.18,211.13,275.18,211.13,71.17,49.82,161.31,64c0,0-201.64,288.22-186.22,436.49,0,0-499.35-340.41-516-587.12Z" transform="translate(-29.12 -272.09)"/><polygon class="cls-9" points="1548.37 1158.88 1374.01 1415.08 1357.4 1366.45 1378.75 1235.98 1515.35 1144.65 1548.37 1158.88"/><path class="cls-5" d="M1473.11,1567.38s-2.37,41.51,35.58,94.89,22.54,113.87,15.42,119.8-53.37-13-53.37-13a24,24,0,0,1-1.19-8.3,24.54,24.54,0,0,1,2.37-9.49c4.31-9.45,14.22-37.26,8.3-49.82a17.56,17.56,0,0,0-4.74-5.93c-.85-.64-4.79-3.59-8.92-2.76-1.81.37-4.72,1.67-7.68,7.5-8.25,16.26,1.76,31.08-5.93,38-3.82,3.42-10.32,3.37-14.23,1.19-5.57-3.11-6.63-10.95-7.12-15.42-2.78-25.55-1.41-76.25-1.19-84.21l-5.93-85.4,45.07-48.63Z" transform="translate(-29.12 -272.09)"/><path class="cls-1" d="M1503.94,1696.66s19.12,31.17-15.35,79" transform="translate(-29.12 -272.09)"/><path class="cls-1" d="M1518.18,1708.52s11.52,42.49-10.85,72.84" transform="translate(-29.12 -272.09)"/><path class="cls-10" d="M1484.53,1762.14a8.38,8.38,0,0,1,3.6,6.93c-.05,3.45-2.23,6.49-4.6,9a45.61,45.61,0,0,1-8.66,7.14c-1.95,1.24-4.48,2.33-6.45,1.14-1.41-.85-2-2.6-2.19-4.23a18.61,18.61,0,0,1,2.93-11.68C1472.28,1765.31,1477.92,1757.65,1484.53,1762.14Z" transform="translate(-29.12 -272.09)"/><path class="cls-10" d="M1504.7,1772.06a6,6,0,0,1,2.7,4.2,7.58,7.58,0,0,1-1,4,24.9,24.9,0,0,1-11.85,11.32,9.79,9.79,0,0,1-4.09,1,4.49,4.49,0,0,1-3.68-1.78c-1-1.41-.75-3.28-.36-4.94a30.18,30.18,0,0,1,6.39-12.69c1.43-1.68,3.58-3.7,6-3.73a5.37,5.37,0,0,1,2.37.83A21.07,21.07,0,0,1,1504.7,1772.06Z" transform="translate(-29.12 -272.09)"/><path class="cls-10" d="M1523.24,1777.43a9.43,9.43,0,0,1-1.45,4.52,14.84,14.84,0,0,1-8,6.46,4.48,4.48,0,0,1-3.51,0,3.38,3.38,0,0,1-1.6-2.64,7.64,7.64,0,0,1,.48-3.15c1.21-3.7,3.64-7.72,6.9-10S1523.32,1773.89,1523.24,1777.43Z" transform="translate(-29.12 -272.09)"/><path class="cls-10" d="M1447.38,1721.41a10.32,10.32,0,0,0-6.23-.18,8,8,0,0,0-5.5,4.21,11.24,11.24,0,0,0-.42,5.25c.35,4.44.71,8.93,2.16,13.14a12.78,12.78,0,0,0,3.75,5.92,6.4,6.4,0,0,0,6.64,1.06c1.89-.93,3-2.94,3.75-4.91C1454.1,1739.28,1456,1724.67,1447.38,1721.41Z" transform="translate(-29.12 -272.09)"/><polygon class="cls-9" points="178.42 2244.17 310.08 2295.17 340.92 2247.72 190.28 2233.49 178.42 2244.17"/><path class="cls-5" d="M698.58,2646.73v60.49H230.07s-111.49,0-158.94-38v-77.1s15.42-21.35,93.7-23.72,115.05,0,202.82-52.19l256.2,45.07Z" transform="translate(-29.12 -272.09)"/><g class="cls-13"><path class="cls-10" d="M436.45,2531.68s-80.65,55.75-149.45,64-91.33,23.72-103.19,41.51l65.24,7.12H685.53v-42.7Z" transform="translate(-29.12 -272.09)"/><path class="cls-5" d="M709.26,2633.68l-476.81,3.56s-105.56-2.37-169.61-48.63v99.63l117.42,28.47h529Z" transform="translate(-29.12 -272.09)"/><circle class="cls-14" cx="446.48" cy="2331.94" r="16.61"/><circle class="cls-14" cx="397.26" cy="2332.53" r="16.61"/></g><path class="cls-1" d="M698.58,2646.73v60.49H230.07s-111.49,0-158.94-38v-77.1s15.42-21.35,93.7-23.72,115.05,0,202.82-52.19l256.2,45.07Z" transform="translate(-29.12 -272.09)"/><path class="cls-5" d="M1102.45,872.92c-35.78,16.2-80.62,37.85-124.54,62.86-11.05,6.3-25,14.49-39.14,29.65-6.74,7.23-21.35,24.44-34.4,60.49-12,33.15-11.35,50.92-16.61,77.1-5.12,25.49-16.34,61.46-43.89,103.19,0,0-104.38,274-311.94,334.48L883,1638Z" transform="translate(-29.12 -272.09)"/><circle class="cls-15" cx="761.98" cy="1213.44" r="47.44"/><polygon class="cls-11" points="888.89 982.15 751.31 1268.01 869.92 1317.82 912.12 1248.47 924.48 1008.25 888.89 982.15"/><path class="cls-5" d="M1268.5,1600,722.9,2570.23s-24.91,34.4-24.91,77.1c0,0-154.19-107.94-491-131.66l752-1044.36Z" transform="translate(-29.12 -272.09)"/><polygon class="cls-11" points="995.64 1366.45 1040.71 1186.16 1130.86 1080.6 1100.02 1342.73 995.64 1366.45"/><polygon class="cls-11" points="1294.54 1167.19 1357.4 1366.45 1528.2 1144.65 1294.54 1167.19"/><polygon class="cls-11" points="1188.78 666.06 1038.34 655.98 986.15 817.29 1127.3 902.69 1188.78 666.06"/><polygon class="cls-16" points="1079.86 1199.21 1054.95 1409.15 1357.4 1297.66 1308.97 1166.59 1086.97 1186.16 1079.86 1199.21"/><g class="cls-17"><polygon class="cls-18" points="1333.68 1212.26 1054.95 1239.54 1079.86 1170.74 1319.45 1158.88 1333.68 1212.26"/></g><polygon class="cls-1" points="1079.86 1199.21 1054.95 1409.15 1357.4 1297.66 1308.97 1166.59 1086.97 1186.16 1079.86 1199.21"/><polygon class="cls-5" points="1397.73 782.89 1548.37 1158.88 1079.86 1199.21 1107.14 1011.81 1223.38 766.28 1397.73 782.89"/><g class="cls-19"><circle class="cls-20" cx="1302.25" cy="1088.31" r="66.42"/><polygon class="cls-18" points="1543.62 1098.39 1340.8 1119.74 1209.14 769.84 1228.12 755.61 1414.34 771.03 1543.62 1098.39"/><circle class="cls-21" cx="1302.84" cy="1088.9" r="66.42"/></g><polygon class="cls-1" points="1397.73 782.89 1548.37 1158.88 1079.86 1199.21 1107.14 1011.81 1223.38 766.28 1397.73 782.89"/><path class="cls-5" d="M1182.51,1148.68s-104.38-47.44-177.92-115.05L867,1517.56l174.36,97.26Z" transform="translate(-29.12 -272.09)"/><g class="cls-22"><polygon points="1059.1 804.83 908.47 885.49 926.26 816.69 1041.31 765.69 1059.1 804.83"/><polygon points="1094.68 830.93 900.16 932.93 903.72 987.49 1143.31 859.39 1094.68 830.93"/><polygon points="985.56 987.49 853.9 1051.54 853.9 1098.99 1003.75 1036.12 985.56 987.49"/><polygon points="951.83 1096.52 826.62 1167.78 830.18 1212.85 967.77 1147.62 951.83 1096.52"/><polygon points="915.58 1222.34 834.93 1257.92 885.93 1285.2 915.58 1222.34"/></g><path class="cls-10" d="M1042,1183.67l-46.26-11.86S981.76,1334,909.26,1541.13l50.81,28.09L1052.63,1237Z" transform="translate(-29.12 -272.09)"/><path class="cls-5" d="M1161.16,1208l-137-57.53s-51.58,298.73-94.58,402l111.78,62.35Z" transform="translate(-29.12 -272.09)"/><path class="cls-5" d="M1196.15,725.84s9.49,39.14,56.93,90.14L1213.94,951.2l-145.89-11.86,45.07-83s35.58-35.58,16.61-123.35Z" transform="translate(-29.12 -272.09)"/><g class="cls-23"><path class="cls-14" d="M1216.32,753.12s-49.82,64-90.14,24.91l-2.37,19s47.44,39.14,103.19-29.65Z" transform="translate(-29.12 -272.09)"/></g><path class="cls-1" d="M1196.15,725.84s9.49,39.14,56.93,90.14L1213.94,951.2l-145.89-11.86,45.07-83s35.58-35.58,16.61-123.35Z" transform="translate(-29.12 -272.09)"/><path d="M1138,742.44s-86.59,26.09-179.1-38c0,0,2.37-221.8,170.8-247.9S1389.49,555,1389.49,555l24.91,39.14S1343.23,734.14,1138,742.44Z" transform="translate(-29.12 -272.09)"/><path class="cls-5" d="M1177.17,736.51s36.77-67.61-3.56-129.29L1162.94,612l-24.91-32s-3.56,19,4.74,28.47c0,0-32-3.56-51-45.07,0,0,2.37,29.65-23.72,51-4.77,17.39-12.7,56.72,4.74,98.45,6,14.25,24.74,59.18,62.27,64.64,7.1,1,25.76,1.25,41.51-9.49a64.31,64.31,0,0,0,11.86-10.67,65.1,65.1,0,0,0,12.45-21.94Z" transform="translate(-29.12 -272.09)"/><path class="cls-10" d="M1578.08,1060.32,1248.34,794.63s-7.12-4.74-11.86,10.67-27.28,62.86-75.91,289.41-90.14,364.13-90.14,364.13L1412,1157.58l-153-83Z" transform="translate(-29.12 -272.09)"/><path class="cls-24" d="M1124.27,838.52s-289.29,322-399.6,312.54c0,0,180.29,119.8,205.2,147.08l74.72-264.5,40.33,34.4Z" transform="translate(-29.12 -272.09)"/><path d="M651.14,1994.37c-6.12,16.43-11.55,33.08-16.51,49.85q-3.75,12.57-7.1,25.24c-2.21,8.45-4.39,16.91-6.36,25.41s-3.82,17-5.56,25.58-3.29,17.13-4.69,25.74c-2.87,17.2-5.11,34.49-6.54,51.84-.74,8.67-1.33,17.36-1.68,26.05s-.42,17.4-.37,26.09.42,17.39,1,26.07c.34,4.33.65,8.67,1.11,13s.92,8.65,1.43,13c4.48,34.48,13.62,68.48,28.69,100.19-2.12-3.83-4.35-7.62-6.3-11.55s-3.86-7.89-5.73-11.87q-5.35-12.06-9.62-24.59T605.54,2329c-2.06-8.58-3.76-17.24-5.2-26s-2.49-17.48-3.26-26.28-1.24-17.61-1.5-26.43-.11-17.65.16-26.46.83-17.62,1.54-26.41,1.78-17.54,2.93-26.27,2.48-17.44,4.08-26.1c3.18-17.32,6.91-34.53,11.5-51.51s9.71-33.81,15.52-50.39A512.53,512.53,0,0,1,651.14,1994.37Z" transform="translate(-29.12 -272.09)"/><path d="M555.06,2248.2c-1.2,9.69-2.26,19.37-3.14,29.06s-1.67,19.38-2.3,29.06-1.08,19.38-1.28,29.08-.28,19.38,0,29.06.75,19.34,1.6,29c.23,2.4.4,4.82.68,7.22l.86,7.19c.29,2.4.72,4.77,1.06,7.16.18,1.19.33,2.39.53,3.58l.65,3.56c.46,2.37.8,4.77,1.37,7.11l1.56,7.07,1.83,7,.46,1.75.54,1.73,1.08,3.46a161.17,161.17,0,0,0,11.12,26.86,126.91,126.91,0,0,1-13.86-25.88l-1.34-3.44-.67-1.72-.59-1.75-2.33-7c-1.34-4.73-2.68-9.47-3.71-14.28-4.41-19.19-6.21-38.86-6.77-58.46-.16-9.81-.12-19.61.34-29.4s1.18-19.55,2.28-29.27,2.4-19.41,4-29.05S552.58,2257.65,555.06,2248.2Z" transform="translate(-29.12 -272.09)"/><path class="cls-25" d="M1148.11,740.67c.86-1.67.71-2.57,2.37-5.93,1.48-3,1.92-3,2.37-4.74a10.75,10.75,0,0,0-.53-7.06c-.29-.64-2.07-4.53-6.09-5.49a8.71,8.71,0,0,0-7.91,2.16c-1.3,1.25-2.26,3-3.93,3.64-3.11,1.29-6.32-1.68-9.67-2-3.15-.33-6.65,2.36-7.76,5.61a7.94,7.94,0,0,0,.3,5.54c1,2.21,2.42,2.38,4.74,4.74,3.15,3.2,2.29,4.7,4.74,7.12,3.67,3.61,9,3.57,9.49,3.56A14.13,14.13,0,0,0,1148.11,740.67Z" transform="translate(-29.12 -272.09)"/><path class="cls-26" d="M1152.86,728.8c-5.21,3.26-9.16,3.76-11.86,3.56a18.35,18.35,0,0,0-5.93,0c-2.78.55-3.81,1.6-5.93,2.37s-5,1.23-9.49,0" transform="translate(-29.12 -272.09)"/><ellipse class="cls-1" cx="237.13" cy="2301.69" rx="16.01" ry="12.45"/><ellipse class="cls-1" cx="319.03" cy="2560.14" rx="15.42" ry="11.86" transform="translate(-922.92 10.96) rotate(-20.94)"/><ellipse class="cls-1" cx="369.44" cy="2545.32" rx="13.64" ry="10.08" transform="translate(-721.14 -69.52) rotate(-16.12)"/><path class="cls-14" d="M276.63,2564.31s-12.16-29.07-28.77-19.59c0,0-4.74,1.19-10.67,20.16,0,0,7.32-1,17.3-2.3-.12.62-1.15,6.63,2.87,10.6,4.57,4.52,12.95,3.71,16.87-1A11.52,11.52,0,0,0,276.63,2564.31Z" transform="translate(-29.12 -272.09)"/><path class="cls-14" d="M326.15,2551.84c-2.56-11.07-24.67-17.5-36.77-11.86a15.42,15.42,0,0,0-6.73,5.51,16,16,0,0,0-2.13,11.11l16.5-5.41a60.4,60.4,0,0,0,4,5.37c3,3.5,5.18,5.87,8.49,7.15,4.15,1.6,10.66,1.62,14.23-2.37A11,11,0,0,0,326.15,2551.84Z" transform="translate(-29.12 -272.09)"/><path class="cls-14" d="M367.66,2530.49c.34.1,5.83,1.88,7.12,7.12a8.87,8.87,0,0,1-1.19,7.12,9,9,0,0,1-7.12,3.56c-5.21.07-8.13-4.47-8.3-4.74,0,0-6.87-9.58-22.41-9.54a12.12,12.12,0,0,1,3.43-7.07C344.68,2521.71,356.45,2522.65,367.66,2530.49Z" transform="translate(-29.12 -272.09)"/><path class="cls-27" d="M1508.69,2218.55c-8.09,1.73-16.27,3-24.48,4.11s-16.46,1.89-24.72,2.56-16.55,1-24.84,1.28-16.59.22-24.89.06c-16.6-.29-33.19-1.58-49.7-3.52-8.26-1-16.48-2.27-24.67-3.72s-16.35-3.09-24.45-5a415.45,415.45,0,0,1-47.79-14.47,351.06,351.06,0,0,1-45.41-20.78c-29.2-16-55.9-36.64-77.93-61.32a349.84,349.84,0,0,0,80.53,56.42l5.5,2.73c1.84.91,3.71,1.74,5.56,2.62l2.78,1.31,2.8,1.25c1.87.83,3.73,1.69,5.61,2.49,7.53,3.23,15.16,6.19,22.87,9s15.5,5.3,23.35,7.62,15.79,4.37,23.76,6.25a490.21,490.21,0,0,0,48.35,9c16.25,2.29,32.63,3.72,49,4.66s32.88,1.12,49.35.71c8.24-.15,16.47-.54,24.7-1q6.18-.37,12.34-.91C1500.48,2219.45,1504.59,2219.07,1508.69,2218.55Z" transform="translate(-29.12 -272.09)"/><ellipse class="cls-1" cx="1685.42" cy="2532.27" rx="8.3" ry="13.64" transform="translate(-325.35 -47.66) rotate(-7)"/><ellipse class="cls-1" cx="1676.52" cy="2487.2" rx="10.08" ry="14.83" transform="translate(-425.83 47.49) rotate(-9.74)"/><ellipse class="cls-1" cx="1667.63" cy="2443.31" rx="9.49" ry="13.64" transform="translate(-911.29 671.46) rotate(-25.22)"/><ellipse class="cls-1" cx="1649.84" cy="2405.36" rx="9.49" ry="13.64" transform="translate(-896.81 660.26) rotate(-25.22)"/><ellipse class="cls-1" cx="1619.81" cy="2371.49" rx="9.49" ry="12.89" transform="translate(-997.85 855.53) rotate(-30)"/><ellipse class="cls-1" cx="1588.97" cy="2344.21" rx="9.49" ry="12.89" transform="translate(-988.34 836.46) rotate(-30)"/><ellipse class="cls-1" cx="1558.13" cy="2319.31" rx="9.49" ry="12.89" transform="translate(-1264.21 1977.75) rotate(-54.68)"/><path class="cls-14" d="M1683,2525.75c-4.49-3.18-14.69,1.06-17.79,8.3-2.82,6.59.27,15.58,8.17,20.75l-1.18-9.68a36.91,36.91,0,0,0,7.24-4c3.29-2.31,5.09-3.57,5.93-5.93C1686.56,2532,1685.63,2527.57,1683,2525.75Z" transform="translate(-29.12 -272.09)"/><path class="cls-14" d="M1674.74,2483c-6.46-2.64-18.72,7.58-21.35,19a15.13,15.13,0,0,0,0,8.3c2.77,8.8,13.89,11.25,14.88,11.45l-3.14-13.85a38.17,38.17,0,0,0,6.58-4.59c4-3.45,7.45-6.45,7.77-10.81C1679.74,2489.08,1678,2484.4,1674.74,2483Z" transform="translate(-29.12 -272.09)"/><path class="cls-14" d="M1664.07,2439.16c-8.43-3-25.55,11.89-24.91,26.09a19.41,19.41,0,0,0,2.65,8.74c5,8.63,14.92,10.36,16.64,10.63l-4.61-13.18c4.31-4.8,7.73-9,10.22-12.12,4.8-6.05,5.94-8.06,5.93-10.67C1670,2444.92,1667.61,2440.4,1664.07,2439.16Z" transform="translate(-29.12 -272.09)"/><path class="cls-14" d="M1649.84,2402.39c-8.49-3.57-25.52,10-28.47,24.91a13.85,13.85,0,0,0,0,7.12c3.27,10.8,21.36,12.6,22.23,12.68l-6-12c3.91-5.88,7.36-10.49,9.84-13.67,4.95-6.35,7.8-9.29,7.12-13A8.35,8.35,0,0,0,1649.84,2402.39Z" transform="translate(-29.12 -272.09)"/><path class="cls-14" d="M1614.37,2365.48c-1.4.21-4.36.93-7.24,7.26-5.93,13-8.3,27.28-2.37,34.4s22.54,10.28,22.54,10.28L1615,2398l7.6-13.45c.46-.6,3.87-5.19,2.37-10.67C1623.57,2369,1618.65,2364.84,1614.37,2365.48Z" transform="translate(-29.12 -272.09)"/><path class="cls-14" d="M1584.6,2338.34c-4.31.22-7.05,5-8.3,7.12-5.93,10.24-5.73,27.6,3.56,35.58,9,7.75,26.69,6.72,26.69,6.72s-2.31-5.83-18.65-22.88l3.83-6.38c.42-.55,4.29-5.74,2.37-11.86C1592.79,2342.5,1588.9,2338.12,1584.6,2338.34Z" transform="translate(-29.12 -272.09)"/><path class="cls-14" d="M1554.95,2314.62c-4.63,0-7.76,5-8.3,5.93-5.29,8.58-2.49,23.69,7.12,32,10.78,9.35,25.23,6,26.88,5.54,0,0-6.43-7.67-19.62-19.06l2.23-7.83a12.83,12.83,0,0,0,.4-8.9C1562.44,2318.8,1559.11,2314.65,1554.95,2314.62Z" transform="translate(-29.12 -272.09)"/><path class="cls-28" d="M796.18,1081.2c21.61,46.73,47.7,88.24,79.73,130.94,19,23.72,36.77,43.89,56.93,66.42l27.28,27.28c24.91,22.54,49.82,42.7,75.91,64,4.74,3.56,9.49,5.93,14.23,9.49,162.5,121,336.85,185,524.26,242,24.91,8.3,46.26,19,67.61,35.58a127.25,127.25,0,0,1,41.51,52.19c1.19,2.37,2.37,5.93,3.56,8.3,5.93,20.16,7.12,41.51-1.19,60.49a112.77,112.77,0,0,1-38,47.44c-29.65,21.35-64,24.91-97.26,29.65-66.42,0-132.84,1.19-200.45-7.12-2.37,0-4.74-2.37-7.12-2.37-48.63-4.74-94.89-14.23-142-24.74" transform="translate(-29.12 -272.09)"/><path class="cls-10" d="M592.6,1157.34c-1.63-3.14-5.58-4.1-9.07-4.7q-8.6-1.49-17.25-2.72a5.23,5.23,0,0,0-3.48.31c-2,1.21-1.49,4.22-.45,6.29,3.66,7.32,11.15,12,19.15,13.08C587.79,1170.42,596.47,1164.78,592.6,1157.34Z" transform="translate(-29.12 -272.09)"/><path class="cls-29" d="M1759,1764.27,1881.12,1852s30.84,144.7-86.59,170.8-168.43-60.49-176.73-79.47l36.77-145.89Z" transform="translate(-29.12 -272.09)"/><g class="cls-30"><polygon class="cls-31" points="1731.03 1473.2 1907.76 1583.51 1823.54 1757.87 1659.86 1780.4 1551.92 1661.79 1620.72 1496.92 1731.03 1473.2"/><line class="cls-5" x1="1722.72" y1="1483.88" x2="1872.17" y2="1674.84"/><line class="cls-5" x1="1709.68" y1="1492.18" x2="1838.96" y2="1728.21"/><line class="cls-5" x1="1682.4" y1="1511.16" x2="1770.17" y2="1774.47"/><line class="cls-5" x1="1656.3" y1="1524.2" x2="1682.4" y2="1764.98"/><line class="cls-5" x1="1629.02" y1="1532.51" x2="1629.02" y2="1742.45"/></g><path class="cls-1" d="M1759,1764.27,1881.12,1852s30.84,144.7-86.59,170.8-168.43-60.49-176.73-79.47l36.77-145.89Z" transform="translate(-29.12 -272.09)"/><rect class="cls-5" x="1636.79" y="1759.53" width="131.66" height="41.51" rx="12.62" ry="12.62" transform="translate(3894.66 2573.43) rotate(159.34)"/><circle class="cls-10" cx="1666.98" cy="1483.88" r="15.42"/><polygon class="cls-5" points="661.16 565.83 663.53 670.21 611.35 673.77 597.11 708.17 576.95 674.96 486.81 677.33 474.94 571.76 661.16 565.83"/><g id="Layer_2" data-name="Layer 2"><g id="Layer_1-2" data-name="Layer 1-2"><path class="cls-32" d="M635.33,911.9l-.52-6.22-18.44-7.19.35,4.16a4,4,0,0,1-3.64,4.3H613l-24.37,1.43a2.74,2.74,0,0,0-1.89.92l-.3.34L573.71,924a1,1,0,0,0,.8,1.66l51.48-3a10,10,0,0,0,9.36-10.53Q635.34,912,635.33,911.9Z" transform="translate(-29.12 -272.09)"/><path class="cls-33" d="M584.19,882.91a4,4,0,0,1,3.64-4.3h.1l26.23-1.54a2.74,2.74,0,0,0,1.89-.92l14-15.82a.57.57,0,0,0-.47-1l-52.91,3.11a9.54,9.54,0,0,0-9,10.08q0,.12,0,.23l.58,7,16.16,6.3Z" transform="translate(-29.12 -272.09)"/><path class="cls-34" d="M598.43,904.33l4.88-.29a.55.55,0,0,0,.51-.58h0l-.46-7.76,7.76-.46a.55.55,0,0,0,.53-.56h0l-.29-4.88a.55.55,0,0,0-.58-.51h0l-7.77.46-.46-7.76a.55.55,0,0,0-.58-.51h0l-4.88.29a.55.55,0,0,0-.51.58h0l.46,7.76-7.76.46a.55.55,0,0,0-.51.58h0l.29,4.88a.55.55,0,0,0,.58.51h0l7.76-.46.46,7.76a.55.55,0,0,0,.58.51Z" transform="translate(-29.12 -272.09)"/></g></g><polygon class="cls-11" points="1306.99 470.35 1260.74 398 1219.22 420.54 1263.11 497.63 1306.99 470.35"/><polygon class="cls-11" points="1011.06 431.8 1005.13 486.37 975.48 480.43 986.15 427.06 1011.06 431.8"/><path class="cls-35" d="M508.58,1147l6.52-12.66c.45-.87-.13-1.64-1.28-1.7h0a3.28,3.28,0,0,0-2.91,1.47l-6.52,12.66c-.45.87.13,1.64,1.28,1.7h0A3.28,3.28,0,0,0,508.58,1147Z" transform="translate(-29.12 -272.09)"/><circle class="cls-36" cx="392.21" cy="409.11" r="103.54"/><circle class="cls-37" cx="531.36" cy="409.11" r="94.97"/><circle class="cls-27" cx="408.69" cy="409.11" r="59.35"/><circle class="cls-38" cx="130.07" cy="1819.93" r="73.05"/><circle class="cls-39" cx="228.25" cy="1819.93" r="67"/><circle class="cls-27" cx="141.7" cy="1819.93" r="41.88"/><circle class="cls-40" cx="1656.43" cy="1233.59" r="86.1"/><circle class="cls-41" cx="1772.15" cy="1233.59" r="78.97"/><circle class="cls-27" cx="1670.14" cy="1233.59" r="49.36"/><path class="cls-42" d="M1162.65,2630.62s-10.44-48.53-74.83-53.33C1087.83,2577.29,1092.86,2651.28,1162.65,2630.62Z" transform="translate(-29.12 -272.09)"/><path class="cls-42" d="M1160.12,2636.38s10.44-48.53,74.83-53.33C1234.95,2583.05,1229.92,2657,1160.12,2636.38Z" transform="translate(-29.12 -272.09)"/><rect class="cls-43" x="1124.76" y="2294.14" width="17.55" height="111.47"/><circle class="cls-44" cx="1133.7" cy="2220.82" r="24.7"/><circle class="cls-44" cx="1164.77" cy="2244.21" r="24.7"/><circle class="cls-44" cx="1100.06" cy="2244.21" r="24.7"/><circle class="cls-44" cx="1113.2" cy="2283.93" r="24.7"/><circle class="cls-44" cx="1152.59" cy="2283.93" r="24.7"/><circle class="cls-45" cx="1134.62" cy="2255.06" r="25.63"/><path class="cls-42" d="M466.65,1769.62s-10.44-48.53-74.83-53.33C391.83,1716.29,396.86,1790.28,466.65,1769.62Z" transform="translate(-29.12 -272.09)"/><path class="cls-42" d="M464.12,1775.38s10.44-48.53,74.83-53.33C538.95,1722.05,533.92,1796,464.12,1775.38Z" transform="translate(-29.12 -272.09)"/><rect class="cls-43" x="428.76" y="1433.14" width="17.55" height="111.47"/><circle class="cls-44" cx="437.7" cy="1359.82" r="24.7"/><circle class="cls-44" cx="468.77" cy="1383.21" r="24.7"/><circle class="cls-44" cx="404.06" cy="1383.21" r="24.7"/><circle class="cls-44" cx="417.2" cy="1422.93" r="24.7"/><circle class="cls-44" cx="456.59" cy="1422.93" r="24.7"/><circle class="cls-45" cx="438.62" cy="1394.06" r="25.63"/><path class="cls-42" d="M1522.65,851.62s-10.44-48.53-74.83-53.33C1447.83,798.29,1452.86,872.28,1522.65,851.62Z" transform="translate(-29.12 -272.09)"/><path class="cls-42" d="M1520.12,857.38s10.44-48.53,74.83-53.33C1594.95,804.05,1589.92,878,1520.12,857.38Z" transform="translate(-29.12 -272.09)"/><rect class="cls-43" x="1484.76" y="515.14" width="17.55" height="111.47"/><circle class="cls-44" cx="1493.7" cy="441.82" r="24.7"/><circle class="cls-44" cx="1524.77" cy="465.21" r="24.7"/><circle class="cls-44" cx="1460.06" cy="465.21" r="24.7"/><circle class="cls-44" cx="1473.2" cy="504.93" r="24.7"/><circle class="cls-44" cx="1512.59" cy="504.93" r="24.7"/><circle class="cls-45" cx="1494.62" cy="476.06" r="25.63"/></svg>