<svg xmlns="http://www.w3.org/2000/svg" xmlns:xlink="http://www.w3.org/1999/xlink" viewBox="0 0 699.44 163.75"><defs><style>.cls-1{fill:#0d47a1;}.cls-2{fill:url(#linear-gradient);}.cls-3{fill:url(#linear-gradient-2);}</style><linearGradient id="linear-gradient" x1="486.94" y1="72.03" x2="586.65" y2="89.61" gradientUnits="userSpaceOnUse"><stop offset="0" stop-color="#0d47a1"/><stop offset="1" stop-color="#0e73a0"/></linearGradient><linearGradient id="linear-gradient-2" x1="665.54" y1="79.03" x2="564.43" y2="82.57" xlink:href="#linear-gradient"/></defs><title>intro logo text</title><g id="Layer_2" data-name="Layer 2"><g id="Layer_1-2" data-name="Layer 1"><path class="cls-1" d="M0,107l18.22-9.9a27.36,27.36,0,0,0,11.23,9.33A37.5,37.5,0,0,0,46,110q9.15,0,15.07-2.46T67,101.07a6.79,6.79,0,0,0-3.76-6.18q-3.76-2.17-14.81-4.54l-13.9-3q-15.11-3.19-22.45-9.41A20.23,20.23,0,0,1,4.75,61.7Q4.75,49,16.37,41.2t30-7.81A56,56,0,0,1,72,39.12Q83.68,45,88.78,53l-18,9.66a24.29,24.29,0,0,0-10.23-8.06,34.69,34.69,0,0,0-14.64-3.15q-8,0-13.13,2.46t-5.1,6.46a6.67,6.67,0,0,0,3.76,6Q35.15,68.58,46.2,71l14,3q15,3.11,22.37,9.45A20.77,20.77,0,0,1,89.9,99.92q0,12.69-12.52,20.5t-31.87,7.82a60,60,0,0,1-27.81-6.38Q5.44,115.55,0,107Z"/><path class="cls-1" d="M170.17,35.76h25.48l-41.28,91.82q-9.41,20.54-19.6,28.15a36.9,36.9,0,0,1-23.32,8,51,51,0,0,1-21.59-4.5l5.44-18.41a38.83,38.83,0,0,0,14.34,2.86A20.57,20.57,0,0,0,122.16,140q5-3.68,8.72-12.44l.69-1.64L89.17,35.76h26l28.07,62.85Z"/><path class="cls-1" d="M358.13,75v51H334V76.6q0-11.37-4.88-17.31t-14-5.93a19.7,19.7,0,0,0-15.59,7.16q-6.18,7.16-6.17,18.29v47.14H269.18V76.6q0-11.37-4.88-17.31t-14-5.93a19.46,19.46,0,0,0-15.63,7.2q-6.13,7.28-6.13,18.25v47.14H204.41V35.76h24.09V48.61a28.34,28.34,0,0,1,11.14-11.13,32.48,32.48,0,0,1,16.24-4.09,39.19,39.19,0,0,1,19.21,4.5A32,32,0,0,1,287.92,51,34.64,34.64,0,0,1,301,38.05a38.61,38.61,0,0,1,19.26-4.66q17.62,0,27.72,11.09T358.13,75Z"/><path class="cls-1" d="M477.35,80.85a46.65,46.65,0,0,1-5.79,23.94A45.2,45.2,0,0,1,431,128.23a40.67,40.67,0,0,1-18.18-3.93A31.29,31.29,0,0,1,400.06,113v12.93H376V0h24.09V48.45a30.66,30.66,0,0,1,12.78-11.21A41.48,41.48,0,0,1,431,33.39a44.91,44.91,0,0,1,40.59,23.45A47.08,47.08,0,0,1,477.35,80.85Zm-23,0q0-11.87-7.69-19.64t-19.6-7.86q-11.92,0-19.39,7.57t-7.47,19.93q0,12.36,7.47,19.89t19.39,7.53q11.92,0,19.6-7.82T454.38,80.85Z"/><path class="cls-2" d="M486.29,80.85a43.79,43.79,0,0,1,6.43-24.1,47,47,0,0,1,18.44-17.27,52.5,52.5,0,0,1,25.73-6.1,54.11,54.11,0,0,1,26,6.22,45.75,45.75,0,0,1,18.09,17.06,46.26,46.26,0,0,1,6.48,24.18,46.85,46.85,0,0,1-3.8,18.78,44.82,44.82,0,0,1-10.45,15.06,48.83,48.83,0,0,1-16.06,9.9,55.54,55.54,0,0,1-20.21,3.64,52.51,52.51,0,0,1-25.73-6.1,47.07,47.07,0,0,1-18.44-17.23A43.58,43.58,0,0,1,486.29,80.85Zm78.15,0q0-11.7-7.69-19.52T536.9,53.52q-12,0-19.73,7.82a26.64,26.64,0,0,0-7.73,19.52q0,11.7,7.6,19.39t19.86,7.69q12.18,0,19.78-7.69A26.5,26.5,0,0,0,564.45,80.85Z"/><path class="cls-3" d="M564.44,80.85a43.79,43.79,0,0,1,6.43-24.1,47,47,0,0,1,18.44-17.27A52.5,52.5,0,0,1,615,33.39a54.11,54.11,0,0,1,26,6.22,45.75,45.75,0,0,1,18.09,17.06,46.26,46.26,0,0,1,6.48,24.18,46.85,46.85,0,0,1-3.8,18.78,44.82,44.82,0,0,1-10.45,15.06,48.83,48.83,0,0,1-16.06,9.9A55.54,55.54,0,0,1,615,128.23a52.51,52.51,0,0,1-25.73-6.1,47.07,47.07,0,0,1-18.44-17.23A43.58,43.58,0,0,1,564.44,80.85Zm78.15,0q0-11.7-7.69-19.52T615,53.52q-12,0-19.73,7.82a26.64,26.64,0,0,0-7.73,19.52q0,11.7,7.6,19.39T615,107.94q12.18,0,19.78-7.69A26.5,26.5,0,0,0,642.6,80.85Z"/><path class="cls-1" d="M699.44,0V125.94H675.34V0Z"/></g></g></svg>