<svg xmlns="http://www.w3.org/2000/svg" xmlns:xlink="http://www.w3.org/1999/xlink" viewBox="0 0 185.3 179"><defs><style>.cls-1{fill:url(#linear-gradient);}.cls-2{fill:url(#linear-gradient-2);}.cls-3{fill:url(#linear-gradient-3);}</style><linearGradient id="linear-gradient" x1="72.63" y1="118.27" x2="127.88" y2="203.35" gradientUnits="userSpaceOnUse"><stop offset="0" stop-color="#0d47a1"/><stop offset="1" stop-color="#0e71a0"/><stop offset="1" stop-color="#0e73a0"/></linearGradient><linearGradient id="linear-gradient-2" x1="57.77" y1="-25.13" x2="113.43" y2="60.58" xlink:href="#linear-gradient"/><linearGradient id="linear-gradient-3" x1="71.96" y1="64.24" x2="105.7" y2="116.21" xlink:href="#linear-gradient"/></defs><title>logo mobile</title><g id="Layer_2" data-name="Layer 2"><g id="Layer_1-2" data-name="Layer 1"><path class="cls-1" d="M185.29,150l-.43-17.72-51.1-23.46.29,11.86a11.32,11.32,0,0,1-11.32,11.6H53.36a7.79,7.79,0,0,0-5.52,2.3l-.91.92L8.47,174.17a2.83,2.83,0,0,0,2,4.83H157A28.31,28.31,0,0,0,185.29,150Z"/><path class="cls-2" d="M45.08,59.23A11.32,11.32,0,0,1,56.4,47.63h74.66a7.79,7.79,0,0,0,5.52-2.3L178.89,2.79A1.63,1.63,0,0,0,177.73,0H27.11A27.11,27.11,0,0,0,0,27.77L.49,47.63,45.29,68.21Z"/><path class="cls-3" d="M81.89,122.36H95.77a1.55,1.55,0,0,0,1.55-1.55V98.72h22.09A1.55,1.55,0,0,0,121,97.17V83.29a1.55,1.55,0,0,0-1.55-1.55H97.32V59.65a1.55,1.55,0,0,0-1.55-1.55H81.89a1.55,1.55,0,0,0-1.55,1.55V81.73H58.25a1.55,1.55,0,0,0-1.55,1.55V97.17a1.55,1.55,0,0,0,1.55,1.55H80.34v22.09A1.55,1.55,0,0,0,81.89,122.36Z"/></g></g></svg>