<svg xmlns="http://www.w3.org/2000/svg" xmlns:xlink="http://www.w3.org/1999/xlink" viewBox="0 0 928.3 179"><defs><style>.cls-1{fill:url(#linear-gradient);}.cls-2{fill:url(#linear-gradient-2);}.cls-3{fill:url(#linear-gradient-3);}.cls-4{fill:#0d47a1;}.cls-5{fill:url(#linear-gradient-4);}.cls-6{fill:url(#linear-gradient-5);}</style><linearGradient id="linear-gradient" x1="72.63" y1="118.27" x2="127.88" y2="203.35" gradientUnits="userSpaceOnUse"><stop offset="0" stop-color="#0d47a1"/><stop offset="1" stop-color="#0e71a0"/><stop offset="1" stop-color="#0e73a0"/></linearGradient><linearGradient id="linear-gradient-2" x1="57.77" y1="-25.13" x2="113.43" y2="60.58" xlink:href="#linear-gradient"/><linearGradient id="linear-gradient-3" x1="71.96" y1="64.24" x2="105.7" y2="116.21" xlink:href="#linear-gradient"/><linearGradient id="linear-gradient-4" x1="715.81" y1="79.66" x2="815.51" y2="97.24" gradientUnits="userSpaceOnUse"><stop offset="0" stop-color="#0d47a1"/><stop offset="1" stop-color="#0e73a0"/></linearGradient><linearGradient id="linear-gradient-5" x1="894.4" y1="86.66" x2="793.29" y2="90.19" xlink:href="#linear-gradient-4"/></defs><title>logo symbooll</title><g id="Layer_2" data-name="Layer 2"><g id="Layer_1-2" data-name="Layer 1"><path class="cls-1" d="M185.29,150l-.43-17.72-51.1-23.46.29,11.86a11.32,11.32,0,0,1-11.32,11.6H53.36a7.79,7.79,0,0,0-5.52,2.3l-.91.92L8.47,174.17a2.83,2.83,0,0,0,2,4.83H157A28.31,28.31,0,0,0,185.29,150Z"/><path class="cls-2" d="M45.08,59.23A11.32,11.32,0,0,1,56.4,47.63h74.66a7.79,7.79,0,0,0,5.52-2.3L178.89,2.79A1.63,1.63,0,0,0,177.73,0H27.11A27.11,27.11,0,0,0,0,27.77L.49,47.63,45.29,68.21Z"/><path class="cls-3" d="M81.89,122.36H95.77a1.55,1.55,0,0,0,1.55-1.55V98.72h22.09A1.55,1.55,0,0,0,121,97.17V83.29a1.55,1.55,0,0,0-1.55-1.55H97.32V59.65a1.55,1.55,0,0,0-1.55-1.55H81.89a1.55,1.55,0,0,0-1.55,1.55V81.73H58.25a1.55,1.55,0,0,0-1.55,1.55V97.17a1.55,1.55,0,0,0,1.55,1.55H80.34v22.09A1.55,1.55,0,0,0,81.89,122.36Z"/><path class="cls-4" d="M228.86,114.58l18.22-9.9A27.36,27.36,0,0,0,258.31,114a37.5,37.5,0,0,0,16.58,3.6q9.15,0,15.07-2.46t5.92-6.46a6.79,6.79,0,0,0-3.76-6.18q-3.76-2.17-14.81-4.54l-13.9-3Q248.29,91.75,241,85.53a20.23,20.23,0,0,1-7.34-16.2q0-12.68,11.62-20.5t30-7.81a56,56,0,0,1,25.65,5.73q11.66,5.89,16.75,13.91l-18,9.66a24.29,24.29,0,0,0-10.23-8.06,34.69,34.69,0,0,0-14.64-3.15q-8,0-13.13,2.46T256.5,68a6.67,6.67,0,0,0,3.76,6q3.76,2.17,14.81,4.54l14,3q15,3.11,22.37,9.45a20.77,20.77,0,0,1,7.34,16.49q0,12.69-12.52,20.5t-31.87,7.82a60,60,0,0,1-27.81-6.38Q234.3,123.18,228.86,114.58Z"/><path class="cls-4" d="M399,43.39h25.48L383.23,135.2q-9.41,20.54-19.6,28.15a36.9,36.9,0,0,1-23.32,8,51,51,0,0,1-21.59-4.5l5.44-18.41a38.83,38.83,0,0,0,14.34,2.86A20.57,20.57,0,0,0,351,147.64q5-3.68,8.72-12.44l.69-1.64L318,43.39h26l28.07,62.85Z"/><path class="cls-4" d="M587,82.58v51H562.9V84.22q0-11.37-4.88-17.31T544,61a19.7,19.7,0,0,0-15.59,7.16q-6.18,7.16-6.17,18.29v47.14H498V84.22q0-11.37-4.88-17.31t-14-5.93a19.46,19.46,0,0,0-15.63,7.2q-6.13,7.28-6.13,18.25v47.14H433.28V43.39h24.09V56.23A28.34,28.34,0,0,1,468.51,45.1,32.48,32.48,0,0,1,484.75,41,39.19,39.19,0,0,1,504,45.51a32,32,0,0,1,12.82,13.09,34.64,34.64,0,0,1,13.13-12.93A38.61,38.61,0,0,1,549.17,41q17.62,0,27.72,11.09T587,82.58Z"/><path class="cls-4" d="M706.21,88.48a46.65,46.65,0,0,1-5.79,23.94,45.2,45.2,0,0,1-40.59,23.45,40.67,40.67,0,0,1-18.18-3.93,31.29,31.29,0,0,1-12.74-11.29v12.93H604.83V7.62h24.09V56.07A30.66,30.66,0,0,1,641.7,44.86,41.48,41.48,0,0,1,659.84,41a44.91,44.91,0,0,1,40.59,23.45A47.08,47.08,0,0,1,706.21,88.48Zm-23,0q0-11.87-7.69-19.64T656,61Q644,61,636.57,68.55T629.1,88.48q0,12.36,7.47,19.89T656,115.89q11.92,0,19.6-7.82T683.24,88.48Z"/><path class="cls-5" d="M715.15,88.48a43.79,43.79,0,0,1,6.43-24.1A47,47,0,0,1,740,47.11,52.5,52.5,0,0,1,765.76,41a54.11,54.11,0,0,1,26,6.22A45.75,45.75,0,0,1,809.8,64.29a46.26,46.26,0,0,1,6.48,24.18,46.85,46.85,0,0,1-3.8,18.78A44.82,44.82,0,0,1,802,122.31a48.83,48.83,0,0,1-16.06,9.9,55.54,55.54,0,0,1-20.21,3.64,52.51,52.51,0,0,1-25.73-6.1,47.07,47.07,0,0,1-18.44-17.23A43.58,43.58,0,0,1,715.15,88.48Zm78.15,0q0-11.7-7.69-19.52t-19.86-7.82q-12,0-19.73,7.82a26.64,26.64,0,0,0-7.73,19.52q0,11.7,7.6,19.39t19.86,7.69q12.18,0,19.78-7.69A26.5,26.5,0,0,0,793.31,88.48Z"/><path class="cls-6" d="M793.31,88.48a43.79,43.79,0,0,1,6.43-24.1,47,47,0,0,1,18.44-17.27A52.5,52.5,0,0,1,843.91,41a54.11,54.11,0,0,1,26,6.22A45.75,45.75,0,0,1,888,64.29a46.26,46.26,0,0,1,6.48,24.18,46.85,46.85,0,0,1-3.8,18.78,44.82,44.82,0,0,1-10.45,15.06,48.83,48.83,0,0,1-16.06,9.9,55.54,55.54,0,0,1-20.21,3.64,52.51,52.51,0,0,1-25.73-6.1,47.07,47.07,0,0,1-18.44-17.23A43.58,43.58,0,0,1,793.31,88.48Zm78.15,0q0-11.7-7.69-19.52t-19.86-7.82q-12,0-19.73,7.82a26.64,26.64,0,0,0-7.73,19.52q0,11.7,7.6,19.39t19.86,7.69q12.18,0,19.78-7.69A26.5,26.5,0,0,0,871.46,88.48Z"/><path class="cls-4" d="M928.3,7.62V133.57H904.21V7.62Z"/></g></g></svg>