<svg xmlns="http://www.w3.org/2000/svg" viewBox="0 0 138.43 138.39"><defs><style>.cls-1{fill:#e9ebf3;}.cls-2{fill:#4186d8;}.cls-3{fill:#08306b;}.cls-4{fill:#054899;}.cls-5{fill:#fefefe;}.cls-6{fill:#fff;}</style></defs><title>no_discount</title><g id="Layer_2" data-name="Layer 2"><g id="Layer_1-2" data-name="Layer 1"><path id="Path_61960" data-name="Path 61960" class="cls-1" d="M138.43,69.19a69.09,69.09,0,0,1-3.65,22.25q-.21.61-.43,1.22a69.28,69.28,0,0,1-11,19.66q-2.11,2.65-4.48,5.08t-5,4.63A68.84,68.84,0,0,1,80,137.56h0q-2.4.37-4.84.58-2.91.25-5.89.25a69,69,0,0,1-49.53-20.87q-.68-.69-1.34-1.41-1.64-1.78-3.15-3.67-.85-1.06-1.66-2.16A68.94,68.94,0,0,1,5.32,95.75,68,68,0,0,1,2.92,89c0-.16-.1-.32-.14-.49q-.15-.52-.3-1.05a69.21,69.21,0,1,1,136-18.3Z"/><path class="cls-2" d="M102.83,60.43a9.32,9.32,0,0,1,.59,2.81A10.1,10.1,0,0,1,102,68.82q-9.44,16.42-18.79,32.89c-3.45,6-6.88,12.08-10.35,18.11-2.15,3.72-5.92,4.88-9.71,2.82-9.85-5.36-19.64-10.83-29.46-16.25-2.46-1.36-4.9-2.77-7.39-4.1a8.12,8.12,0,0,1-3.22-11.57Q36.68,67,49.8,42.92a13.11,13.11,0,0,1,4-4.62,13.91,13.91,0,0,1,5.56-2.1c2.84-.6,6.53-1.41,11.66-2.58A6.2,6.2,0,0,0,70.73,35c-.18,2.45.17,4.57,3.31,8.45a1.68,1.68,0,0,1,.52,1.17c-.68,2-1,4,.11,6a6.49,6.49,0,0,0,6.76,3.11,6.24,6.24,0,0,0,5.06-5.84c.14-2.62-.72-4.7-3.05-6a6.13,6.13,0,0,0-6.86.34,1.21,1.21,0,0,1-.37.15c-.56,0-.81-.47-1.08-.85a13.79,13.79,0,0,1-2.41-6.42c-.1-.8.35-1.44.38-2.19a74,74,0,0,1,11-2.35c3.57-.35,6.08,1.49,7.82,4.43a34,34,0,0,1,2,3.8C96.07,44.7,99.14,50.28,102.83,60.43Z"/><path class="cls-3" d="M80.26,39.18A7.7,7.7,0,1,0,88,46.89,7.71,7.71,0,0,0,80.26,39.18Zm0,13.33a5.63,5.63,0,1,1,5.63-5.63A5.63,5.63,0,0,1,80.26,52.52Z"/><path class="cls-4" d="M70.61,37.18A16.46,16.46,0,0,1,70.39,33c.51-7.35,5.56-12.35,6.85-13.62a23.74,23.74,0,0,1,9.92-5.71,14.27,14.27,0,0,1,9.78.08,13.87,13.87,0,0,1,7.14,6.85,15.66,15.66,0,0,1,1.2,8.71,21,21,0,0,1-2.64,8.32,24.45,24.45,0,0,1-6.18,7.43L95.13,42a20.06,20.06,0,0,0,6.9-11.5,18.68,18.68,0,0,0,.34-3.86c-.08-5.15-3.6-9.56-8.23-10.34a14.68,14.68,0,0,0-11.29,2.61,23,23,0,0,0-7.48,8.42A14.06,14.06,0,0,0,73.68,32a12.59,12.59,0,0,0,3.49,10.65c1.27,1.2,4.35,3.21,5.89,3.26a2.23,2.23,0,0,1,1.51.56,1.58,1.58,0,0,1,.41.76,1.69,1.69,0,0,1-.24,1.22,1.75,1.75,0,0,1-1.78.66,14.5,14.5,0,0,1-6.47-2.53A15.19,15.19,0,0,1,70.61,37.18Z"/><path class="cls-5" d="M57.78,76.31a8.54,8.54,0,0,1-8.55-8.57,8.43,8.43,0,1,1,16.87.13A8.29,8.29,0,0,1,57.78,76.31Z"/><path class="cls-5" d="M58.75,94.64a8.34,8.34,0,1,1,16.67.07,8.34,8.34,0,1,1-16.67-.07Z"/><path class="cls-5" d="M79.13,71.63a2.47,2.47,0,0,1-1.41,2.25q-10.52,6.72-21,13.48l-8.33,5.37a2.55,2.55,0,0,1-2.2.65,2.2,2.2,0,0,1-1.66-1.86,2,2,0,0,1,1.11-2.07c5-3.23,10.08-6.48,15.12-9.72s9.81-6.25,14.71-9.38A2.3,2.3,0,0,1,78,70,1.87,1.87,0,0,1,79.13,71.63Z"/><path class="cls-2" d="M61.46,68a3.74,3.74,0,0,1-3.92,3.75,4.15,4.15,0,0,1-3.85-4,3.89,3.89,0,0,1,7.77.21Z"/><path class="cls-2" d="M71,94.72a3.84,3.84,0,0,1-3.89,3.81,3.91,3.91,0,0,1-3.86-4,3.88,3.88,0,0,1,7.75.19Z"/><g id="stars"><g id="Group_12242" data-name="Group 12242"><g id="Group_12241" data-name="Group 12241"><path id="Path_61820" data-name="Path 61820" class="cls-6" d="M24.23,26.6a.77.77,0,0,1,1.47.08l1.16,4.22A6.19,6.19,0,0,0,30.57,35l4.07,1.6a.77.77,0,0,1-.08,1.47l-4.22,1.16a6.19,6.19,0,0,0-4.11,3.71L24.63,47a.77.77,0,0,1-1.47-.08L22,42.72a6.19,6.19,0,0,0-3.7-4.11L14.23,37a.77.77,0,0,1,.08-1.47l4.22-1.16a6.19,6.19,0,0,0,4.11-3.7l1.6-4.07ZM16.54,15.26a.47.47,0,0,1,.88,0l.7,2.53a3.72,3.72,0,0,0,2.22,2.47l2.44,1a.46.46,0,0,1,0,.88l-2.53.7a3.71,3.71,0,0,0-2.47,2.22l-1,2.44a.46.46,0,0,1-.88,0l-.7-2.53A3.71,3.71,0,0,0,13,22.47l-2.44-1a.47.47,0,0,1,0-.88l2.53-.7a3.71,3.71,0,0,0,2.47-2.22Zm15.24-1.45a.31.31,0,0,1,.59,0l.47,1.68a2.47,2.47,0,0,0,1.48,1.65l1.63.64a.31.31,0,0,1,0,.59l-1.68.47a2.48,2.48,0,0,0-1.65,1.48L31.94,22a.31.31,0,0,1-.59,0l-.47-1.68a2.48,2.48,0,0,0-1.48-1.65L27.78,18a.31.31,0,0,1,0-.59l1.68-.47a2.47,2.47,0,0,0,1.65-1.48l.64-1.62Z"/></g></g></g><g id="stars-2"><g id="Group_12242-2" data-name="Group 12242-2"><g id="Group_12241-2" data-name="Group 12241-2"><path id="Path_61820-2" data-name="Path 61820-2" class="cls-6" d="M111.41,112.31a.64.64,0,0,1,1.2.06l1,3.46a5.08,5.08,0,0,0,3,3.38l3.34,1.31a.63.63,0,0,1-.06,1.2l-3.46,1a5.08,5.08,0,0,0-3.38,3l-1.31,3.34a.63.63,0,0,1-1.2-.06l-1-3.46a5.08,5.08,0,0,0-3-3.38l-3.34-1.31a.63.63,0,0,1,.06-1.2l3.46-1a5.08,5.08,0,0,0,3.38-3l1.31-3.34ZM105.1,103a.38.38,0,0,1,.72,0l.57,2.08a3.05,3.05,0,0,0,1.83,2l2,.79a.38.38,0,0,1,0,.72l-2.08.57a3,3,0,0,0-2,1.82l-.79,2a.38.38,0,0,1-.72,0l-.57-2.08a3,3,0,0,0-1.83-2l-2-.79a.38.38,0,0,1,0-.72l2.07-.57a3,3,0,0,0,2-1.83Zm12.51-1.19a.26.26,0,0,1,.48,0l.38,1.38a2,2,0,0,0,1.22,1.35l1.34.52a.26.26,0,0,1,0,.48l-1.38.38a2,2,0,0,0-1.35,1.22l-.52,1.34a.26.26,0,0,1-.48,0l-.38-1.38a2,2,0,0,0-1.22-1.36l-1.33-.52a.26.26,0,0,1,0-.48l1.38-.38a2,2,0,0,0,1.35-1.22l.53-1.33Z"/></g></g></g></g></g></svg>