<svg xmlns="http://www.w3.org/2000/svg" viewBox="0 0 138.43 138.39"><defs><style>.cls-1{fill:#e9ebf3;}.cls-2{fill:#0d47a1;}.cls-3{fill:#b8cddd;}.cls-4{fill:#fff;}</style></defs><title>no_learning</title><g id="Layer_2" data-name="Layer 2"><g id="Layer_1-2" data-name="Layer 1"><path id="Path_61960" data-name="Path 61960" class="cls-1" d="M138.43,69.19a69.09,69.09,0,0,1-3.65,22.25q-.21.61-.43,1.22a69.28,69.28,0,0,1-11,19.66q-2.11,2.65-4.48,5.08t-5,4.63A68.84,68.84,0,0,1,80,137.56h0q-2.4.37-4.84.58-2.91.25-5.89.25a69,69,0,0,1-49.53-20.87q-.68-.69-1.34-1.41-1.64-1.78-3.15-3.67-.85-1.06-1.66-2.16A68.94,68.94,0,0,1,5.32,95.75,68,68,0,0,1,2.92,89c0-.16-.1-.32-.14-.49q-.15-.52-.3-1.05a69.21,69.21,0,1,1,136-18.3Z"/><path class="cls-2" d="M4.61,73.73q0-15.39,0-30.78c0-4.82,2.58-7,7.3-6.19,5.73,1,5.73,1,6.26-4.55.36-3.76,2.24-5.71,6.07-5.36C40.79,28.37,55.68,34.07,68,45.46c2.37,2.19,3.36,1.87,5.46-.16,11.22-10.9,25-16.56,40.32-18.38,6.84-.81,9,1.22,9,8.07,0,2.43.41,3.45,3.11,2.54a15.8,15.8,0,0,1,4.77-.38c2.78,0,4.41,1.41,4.68,4.18.22,2.21.41,4.43.42,6.65q.09,28.18.09,56.36c0,5.37-1.74,7.44-7.07,7a98.47,98.47,0,0,0-40.45,4.86,75,75,0,0,0-15.08,7c-1.58,1-3.06,1.34-4.78.13-9.32-6.57-20.1-9.09-31.06-11.12a73.53,73.53,0,0,0-22.47-1,20.41,20.41,0,0,1-5.17,0c-3.36-.46-5.24-2.19-5.2-5.93C4.7,94.74,4.62,84.24,4.61,73.73Z"/><path class="cls-3" d="M72.54,116.75c-.61-.59-.22-1.36-.22-2,0-20,0-40-.05-60a6.78,6.78,0,0,1,2-5.25c10.94-11.07,24.27-17.08,39.61-18.8,5.32-.6,5.6-.18,5.59,5.26,0,18.65-.08,37.3.06,56,0,3.24-1,4.9-4.17,5.21C98.93,98.68,85,105.69,72.92,116.78,72.86,116.83,72.7,116.77,72.54,116.75Z"/><path class="cls-3" d="M68.58,116.76c-4.82-3.54-8.77-7-13.24-9.83A71,71,0,0,0,25.15,96.7c-2.56-.29-3.35-1.24-3.35-3.7.06-19.63.09-39.25,0-58.88,0-3.1,1.23-3.94,4-3.55,15.49,2.2,29.56,7.5,41,18.65,1.08,1.06,2.06,2.12,1.85,3.82a18.12,18.12,0,0,0,0,2.22C68.58,75.49,68.58,95.73,68.58,116.76Z"/><path class="cls-3" d="M57.6,113.37a146.2,146.2,0,0,0-25.37-5.83,79.43,79.43,0,0,0-18.46-.2c-4.64.37-5.32-.08-5.32-4.49q0-29.09,0-58.19c0-4.67,0-4.43,4.53-4,4.08.42,5.44,1.93,5.35,6.22-.3,15.31-.13,30.64-.12,46,0,5.36,1.24,6.75,6.51,7.44C36.76,101.88,47.9,105.76,57.6,113.37Z"/><path class="cls-3" d="M82.63,114c10.15-8.31,21.76-12,34.16-13.63,4.66-.62,5.94-1.89,6-6.68,0-16.18,0-32.37.05-48.55,0-1.26-.51-2.84,1.35-3.4a16.39,16.39,0,0,1,6.89-1c.84.12.57,1.5.57,2.33,0,20.63,0,41.26.13,61.89,0,2.52-1.19,2.81-3.21,2.69-6.14-.37-12.23-.87-18.45-.19a91.09,91.09,0,0,0-24.67,6C84.68,113.81,84,114.56,82.63,114Z"/><g id="stars"><g id="Group_12242" data-name="Group 12242"><g id="Group_12241" data-name="Group 12241"><path id="Path_61820" data-name="Path 61820" class="cls-4" d="M111.6,18.35a.77.77,0,0,1,1.47.08l1.16,4.22a6.19,6.19,0,0,0,3.71,4.11l4.07,1.6a.77.77,0,0,1-.08,1.47L117.71,31a6.19,6.19,0,0,0-4.11,3.71L112,38.76a.77.77,0,0,1-1.47-.08l-1.16-4.21a6.19,6.19,0,0,0-3.7-4.11l-4.07-1.6a.77.77,0,0,1,.08-1.47l4.22-1.16a6.19,6.19,0,0,0,4.11-3.7l1.6-4.07ZM103.91,7a.46.46,0,0,1,.88,0l.7,2.53a3.72,3.72,0,0,0,2.22,2.47l2.44,1a.46.46,0,0,1,0,.88l-2.53.7a3.71,3.71,0,0,0-2.47,2.22l-1,2.44a.46.46,0,0,1-.88,0l-.7-2.53a3.71,3.71,0,0,0-2.22-2.47l-2.44-1a.47.47,0,0,1,0-.88l2.53-.7A3.71,3.71,0,0,0,103,9.46Zm15.24-1.45a.31.31,0,0,1,.59,0l.47,1.68a2.47,2.47,0,0,0,1.48,1.65l1.63.64a.31.31,0,0,1,0,.59l-1.68.47a2.48,2.48,0,0,0-1.65,1.48l-.64,1.63a.31.31,0,0,1-.59,0L118.25,12a2.48,2.48,0,0,0-1.48-1.65l-1.62-.64a.31.31,0,0,1,0-.59l1.68-.47a2.47,2.47,0,0,0,1.65-1.48l.64-1.62Z"/></g></g></g><g id="stars-2"><g id="Group_12242-2" data-name="Group 12242-2"><g id="Group_12241-2" data-name="Group 12241-2"><path id="Path_61820-2" data-name="Path 61820-2" class="cls-4" d="M34.74,112.31a.63.63,0,0,1,1.2.06l1,3.46a5.08,5.08,0,0,0,3,3.38l3.34,1.31a.63.63,0,0,1-.06,1.2l-3.46,1a5.08,5.08,0,0,0-3.38,3l-1.31,3.34a.63.63,0,0,1-1.2-.06l-1-3.46a5.08,5.08,0,0,0-3-3.38l-3.34-1.31a.63.63,0,0,1,.06-1.2l3.46-1a5.08,5.08,0,0,0,3.38-3l1.31-3.34ZM28.43,103a.38.38,0,0,1,.72,0l.57,2.08a3.05,3.05,0,0,0,1.83,2l2,.79a.38.38,0,0,1,0,.72l-2.08.57a3,3,0,0,0-2,1.82l-.79,2a.38.38,0,0,1-.72,0l-.57-2.08a3,3,0,0,0-1.83-2l-2-.79a.38.38,0,0,1,0-.72l2.07-.57a3,3,0,0,0,2-1.83Zm12.51-1.19a.26.26,0,0,1,.48,0l.38,1.38A2,2,0,0,0,43,104.57l1.34.52a.25.25,0,0,1,0,.48l-1.38.38a2,2,0,0,0-1.35,1.22l-.52,1.34a.26.26,0,0,1-.48,0l-.38-1.38A2,2,0,0,0,39,105.75l-1.33-.52a.26.26,0,0,1,0-.48l1.38-.38a2,2,0,0,0,1.35-1.22l.53-1.33Z"/></g></g></g></g></g></svg>