<svg xmlns="http://www.w3.org/2000/svg" viewBox="0 0 138.43 138.39"><defs><style>.cls-1{fill:#e9ebf3;}.cls-2{fill:#0d47a1;}.cls-3{fill:#b8cddd;}.cls-4{fill:#fff;}</style></defs><title>no_trancriptt</title><g id="Layer_2" data-name="Layer 2"><g id="Layer_1-2" data-name="Layer 1"><path id="Path_61960" data-name="Path 61960" class="cls-1" d="M138.43,69.19a69.09,69.09,0,0,1-3.65,22.25q-.21.61-.43,1.22a69.28,69.28,0,0,1-11,19.66q-2.11,2.65-4.48,5.08t-5,4.63A68.84,68.84,0,0,1,80,137.56h0q-2.4.37-4.84.58-2.91.25-5.89.25a69,69,0,0,1-49.53-20.87q-.68-.69-1.34-1.41-1.64-1.78-3.15-3.67-.85-1.06-1.66-2.16A68.94,68.94,0,0,1,5.32,95.75,68,68,0,0,1,2.92,89c0-.16-.1-.32-.14-.49q-.15-.52-.3-1.05a69.21,69.21,0,1,1,136-18.3Z"/><path class="cls-2" d="M109.73,71c0,13.14-.26,26.29.1,39.42.21,7.44-4.63,9.91-10.05,9.88-14.79-.08-29.59,0-44.38,0-5.55,0-11.1,0-16.64,0-7.57,0-10.17-2.47-10.12-10.12q.22-34.59.56-69.19c0-4,.19-8,.36-12a6.76,6.76,0,0,1,7.11-6.88q32.85,0,65.7,0c4.37,0,7.36,3.14,7.37,7.67Q109.75,50.4,109.73,71Z"/><path class="cls-3" d="M106.24,71.12q0,20.15,0,40.29c0,4.14-1.25,5.41-5.36,5.41q-31.83,0-63.65,0c-3.86,0-5.27-1.4-5.25-5.27q.26-40.57.57-81.15c0-3.66,1.73-5.29,5.43-5.29q30.95,0,61.9,0c5.37,0,6.44,1.16,6.43,6.52q0,19.71,0,39.42Z"/><path class="cls-2" d="M96.15,71.83A3.09,3.09,0,0,1,94.92,74q-13.52,13.49-27,27c-1.63,1.63-3.19,1.65-4.77,0Q58,95.61,52.89,90.21c-.84-.89-1.61-1.82-.39-3s2.21-.39,3,.47c2.86,3,5.72,6.09,8.41,9.27,1.16,1.37,1.79,1.5,3.11.15,7.79-8,15.68-15.91,23.54-23.84a16.63,16.63,0,0,1,2.78-2.55C94.82,69.82,95.65,70.76,96.15,71.83Z"/><path class="cls-2" d="M67.64,42.54c8.46,0,16.91,0,25.37,0,1.15,0,2.92-.52,2.93,1.39,0,1.7-1.5,2.05-3,2.05H41.36c-1.24,0-2.47-.1-2.45-1.75s1.25-1.71,2.49-1.71H67.64Z"/><path class="cls-2" d="M57.95,56.54c4.56,0,9.13,0,13.69,0,1.24,0,2.81-.22,2.82,1.62,0,1.49-1.38,1.85-2.55,1.79-9.41-.51-18.83-.14-28.24-.28-1.11,0-1.92-.42-1.82-1.71S43,56.55,44,56.55h14Z"/><g id="stars"><g id="Group_12242" data-name="Group 12242"><g id="Group_12241" data-name="Group 12241"><path id="Path_61820" data-name="Path 61820" class="cls-4" d="M25.58,29.28a.77.77,0,0,1,1.47.08l1.16,4.22a6.19,6.19,0,0,0,3.71,4.11L36,39.29a.77.77,0,0,1-.08,1.47L31.7,41.92a6.19,6.19,0,0,0-4.11,3.71L26,49.69a.77.77,0,0,1-1.47-.08L23.36,45.4a6.19,6.19,0,0,0-3.7-4.11l-4.07-1.6a.77.77,0,0,1,.08-1.47l4.22-1.16A6.19,6.19,0,0,0,24,33.35l1.6-4.07ZM17.89,17.94a.47.47,0,0,1,.88,0l.7,2.53A3.72,3.72,0,0,0,21.7,23l2.44,1a.46.46,0,0,1,0,.88l-2.53.7a3.71,3.71,0,0,0-2.47,2.22l-1,2.44a.46.46,0,0,1-.88,0l-.7-2.53a3.71,3.71,0,0,0-2.22-2.47l-2.44-1a.47.47,0,0,1,0-.88l2.53-.7a3.71,3.71,0,0,0,2.47-2.22Zm15.24-1.45a.31.31,0,0,1,.59,0l.47,1.68a2.47,2.47,0,0,0,1.48,1.65l1.63.64a.31.31,0,0,1,0,.59l-1.68.47A2.48,2.48,0,0,0,33.93,23l-.64,1.63a.31.31,0,0,1-.59,0l-.47-1.68a2.48,2.48,0,0,0-1.48-1.65l-1.62-.64a.31.31,0,0,1,0-.59l1.68-.47a2.47,2.47,0,0,0,1.65-1.48l.64-1.62Z"/></g></g></g><g id="stars-2"><g id="Group_12242-2" data-name="Group 12242-2"><g id="Group_12241-2" data-name="Group 12241-2"><path id="Path_61820-2" data-name="Path 61820-2" class="cls-4" d="M110.69,109.27a.64.64,0,0,1,1.2.06l1,3.46a5.08,5.08,0,0,0,3,3.38l3.34,1.31a.63.63,0,0,1-.06,1.2l-3.46,1a5.08,5.08,0,0,0-3.38,3L111,126a.63.63,0,0,1-1.2-.06l-1-3.46a5.08,5.08,0,0,0-3-3.38l-3.34-1.31a.63.63,0,0,1,.06-1.2l3.46-1a5.08,5.08,0,0,0,3.38-3l1.31-3.34ZM104.37,100a.38.38,0,0,1,.72,0l.57,2.08a3.05,3.05,0,0,0,1.83,2l2,.79a.38.38,0,0,1,0,.72l-2.08.57a3,3,0,0,0-2,1.82l-.79,2a.38.38,0,0,1-.72,0l-.57-2.08a3,3,0,0,0-1.83-2l-2-.79a.38.38,0,0,1,0-.72l2.07-.57a3,3,0,0,0,2-1.83Zm12.51-1.19a.26.26,0,0,1,.48,0l.38,1.38a2,2,0,0,0,1.22,1.35l1.34.52a.25.25,0,0,1,0,.48l-1.38.38a2,2,0,0,0-1.35,1.22l-.52,1.34a.26.26,0,0,1-.48,0l-.38-1.38a2,2,0,0,0-1.22-1.36l-1.33-.52a.25.25,0,0,1,0-.48l1.38-.38a2,2,0,0,0,1.35-1.22l.53-1.33Z"/></g></g></g></g></g></svg>