<svg xmlns="http://www.w3.org/2000/svg" xmlns:xlink="http://www.w3.org/1999/xlink" viewBox="0 0 1576 1576"><defs><style>.cls-1{fill:url(#linear-gradient);}.cls-2{fill:#fff;}</style><linearGradient id="linear-gradient" x1="122.02" y1="1477.65" x2="1453.98" y2="98.35" gradientUnits="userSpaceOnUse"><stop offset="0" stop-color="#0d47a1"/><stop offset="0.42" stop-color="#0d56a1"/><stop offset="1" stop-color="#0e73a0"/></linearGradient></defs><title>symbool logo finall</title><g id="Layer_2" data-name="Layer 2"><g id="Layer_1-2" data-name="Layer 1"><rect class="cls-1" width="1576" height="1576" rx="375.63" ry="375.63"/><path class="cls-2" d="M1096.7,1217.43h-703a13.58,13.58,0,0,1-9.63-23.16l184.51-185.55,4.38-4.41a37.36,37.36,0,0,1,26.49-11H932.31a54.34,54.34,0,0,0,54.32-55.65l-1.38-56.93,245.2,112.58,2.06,85A135.84,135.84,0,0,1,1096.7,1217.43Z"/><path class="cls-2" d="M1201.81,371.93l-203,204.17a37.36,37.36,0,0,1-26.49,11H614.06a54.34,54.34,0,0,0-54.32,55.65l1,43.05-215-98.7-2.31-95.31A130.1,130.1,0,0,1,473.55,358.57h722.7A7.84,7.84,0,0,1,1201.81,371.93Z"/><rect class="cls-2" x="728.91" y="637.31" width="81.51" height="308.36" rx="15" ry="15"/><rect class="cls-2" x="728.91" y="637.31" width="81.51" height="308.36" rx="15" ry="15" transform="translate(1561.15 21.82) rotate(90)"/></g></g></svg>