<svg xmlns="http://www.w3.org/2000/svg" viewBox="0 0 123.7 123.66"><defs><style>.cls-1{fill:#f4f4f4;}.cls-2{fill:#ffc845;}</style></defs><title>tes logo</title><g id="Layer_2" data-name="Layer 2"><g id="Layer_1-2" data-name="Layer 1"><path class="cls-1" d="M36.79,38.66l-4.25-4.38a8.65,8.65,0,0,1-2.37,7.27L1.26,69.63a22.69,22.69,0,0,0,5.22,8.51h0L36.64,48.84A7.2,7.2,0,0,0,36.79,38.66Z"/><path class="cls-1" d="M29.21,36.43c1-2.8-.4-6.24-3.28-9l-19,18.44A22.81,22.81,0,0,0,.21,65.43L28,38.47A5.83,5.83,0,0,0,29.21,36.43Z"/><path class="cls-1" d="M17.58,58.08l7-6.79,7.7,7.93a11.24,11.24,0,0,1,2.27,6A11.48,11.48,0,0,1,32.07,73h0Z"/><path class="cls-1" d="M16.09,74l-7,6.79,7.7,7.93a11.24,11.24,0,0,0,5.9,2.44,11.48,11.48,0,0,0,7.87-2.24h0Z"/><path class="cls-1" d="M39.21,36.09,35,31.71a8.65,8.65,0,0,0,7.34-2.15L71.2,1.48A22.69,22.69,0,0,1,79.55,7h0L49.39,36.24A7.2,7.2,0,0,1,39.21,36.09Z"/><path class="cls-1" d="M37.2,28.45c-2.82.88-6.23-.58-8.85-3.54l19-18.44A22.81,22.81,0,0,1,67,.32l-27.77,27A5.83,5.83,0,0,1,37.2,28.45Z"/><path class="cls-1" d="M59.18,17.46l-7,6.79,7.7,7.93a11.24,11.24,0,0,0,5.9,2.44,11.48,11.48,0,0,0,7.87-2.24h0Z"/><path class="cls-1" d="M75.15,16.44l7-6.79,7.7,7.93a11.24,11.24,0,0,1,2.27,6,11.48,11.48,0,0,1-2.47,7.8h0Z"/><path class="cls-1" d="M84.29,87.57l4.25,4.38A8.65,8.65,0,0,0,81.2,94.1L52.29,122.18a22.69,22.69,0,0,1-8.35-5.47h0L74.1,87.42A7.2,7.2,0,0,1,84.29,87.57Z"/><path class="cls-1" d="M86.3,95.21c2.82-.88,6.23.58,8.85,3.54l-19,18.44a22.81,22.81,0,0,1-19.71,6.16l27.77-27A5.83,5.83,0,0,1,86.3,95.21Z"/><path class="cls-1" d="M64.31,106.2l7-6.79-7.7-7.93A11.24,11.24,0,0,0,57.7,89a11.48,11.48,0,0,0-7.87,2.24h0Z"/><path class="cls-1" d="M48.34,107.22l-7,6.79-7.7-7.93a11.24,11.24,0,0,1-2.27-6,11.48,11.48,0,0,1,2.47-7.8h0Z"/><path class="cls-1" d="M86.91,85.21l4.25,4.38a8.65,8.65,0,0,1,2.37-7.27l28.91-28.07a22.69,22.69,0,0,0-5.22-8.51h0L87.05,75A7.2,7.2,0,0,0,86.91,85.21Z"/><path class="cls-1" d="M94.48,87.44c-1,2.8.4,6.24,3.28,9l19-18.44a22.81,22.81,0,0,0,6.73-19.52l-27.77,27A5.83,5.83,0,0,0,94.48,87.44Z"/><path class="cls-1" d="M106.11,65.79l-7,6.79-7.7-7.93a11.24,11.24,0,0,1-2.27-6,11.48,11.48,0,0,1,2.47-7.8h0Z"/><path class="cls-1" d="M107.6,49.86l7-6.79-7.7-7.93A11.24,11.24,0,0,0,101,32.7a11.48,11.48,0,0,0-7.87,2.24h0Z"/><path class="cls-2" d="M72.81,66.47l.48-.47a5.73,5.73,0,0,0,.08-8.11l-.82-.84A64,64,0,0,1,74,50.44l-4,4h0l4-4a63.28,63.28,0,0,1-6.52,1.38L66,50.39a5.73,5.73,0,0,0-8.11-.08l-.4.39a9.79,9.79,0,0,1-6.2-.56,9.72,9.72,0,0,1,.59,6.05l-1.5,1.47a5.73,5.73,0,0,0-.08,8.11l.79.81A69.55,69.55,0,0,1,49.59,74L54,69.56h0L49.6,74a68.72,68.72,0,0,1,7.34-1.52l.74.76a5.73,5.73,0,0,0,8.11.08l1.06-1a9.91,9.91,0,0,1,6.49.49A9.85,9.85,0,0,1,72.81,66.47Z"/></g></g></svg>