<svg xmlns="http://www.w3.org/2000/svg" xmlns:xlink="http://www.w3.org/1999/xlink" viewBox="0 0 430 430" width="430" height="430" preserveAspectRatio="xMidYMid meet" style="width: 100%; height: 100%; transform: translate3d(0px, 0px, 0px); content-visibility: visible;"><defs><clipPath id="__lottie_element_498"><rect width="430" height="430" x="0" y="0"/></clipPath><clipPath id="__lottie_element_500"><path d="M0,0 L430,0 L430,430 L0,430z"/></clipPath></defs><g clip-path="url(#__lottie_element_498)"><g clip-path="url(#__lottie_element_500)" transform="matrix(1,0,0,1,0,0)" opacity="1" style="display: block;"><g transform="matrix(1,0,0,1,215,215)" opacity="1" style="display: block;"><g opacity="1" transform="matrix(1,0,0,1,0,0)"><path stroke-linecap="round" stroke-linejoin="round" fill-opacity="0" class="primary" stroke="rgb(0,0,0)" stroke-opacity="1" stroke-width="12" d=" M160.08900451660156,70.68699645996094 C160.09300231933594,70.30699920654297 159.8159942626953,69.9990005493164 159.4709930419922,69.9990005493164 C159.4709930419922,69.9990005493164 159.4709930419922,69.9990005493164 159.4709930419922,69.9990005493164 C159.12600708007812,69.9990005493164 85.2249984741211,70.0979995727539 83.84500122070312,70.06300354003906 C83.84500122070312,70.06300354003906 83.84500122070312,70.06300354003906 83.84500122070312,70.06300354003906 C82.46499633789062,70.02799987792969 74.39900207519531,81.20099639892578 65.84500122070312,94.9990005493164 C65.84500122070312,94.9990005493164 65.84500122070312,94.9990005493164 65.84500122070312,94.9990005493164 C57.29100036621094,108.7969970703125 32.42100143432617,119.9990005493164 10.345000267028809,119.9990005493164 C10.345000267028809,119.9990005493164 -3.6549999713897705,119.9990005493164 -3.6549999713897705,119.9990005493164 C-25.731000900268555,119.9990005493164 -51.60900115966797,108.7969970703125 -61.404998779296875,94.9990005493164 C-61.404998779296875,94.9990005493164 -61.404998779296875,94.9990005493164 -61.404998779296875,94.9990005493164 C-71.20099639892578,81.20099639892578 -80.38700103759766,69.9990005493164 -81.90499877929688,69.9990005493164 C-81.90499877929688,69.9990005493164 -81.90499877929688,69.9990005493164 -81.90499877929688,69.9990005493164 C-83.4229965209961,69.9990005493164 -159.4969940185547,69.9990005493164 -159.68699645996094,69.9990005493164 C-159.68699645996094,69.9990005493164 -159.68699645996094,69.9990005493164 -159.68699645996094,69.9990005493164 C-159.8769989013672,69.9990005493164 -160.031005859375,70.25199890136719 -160.031005859375,70.56300354003906 C-160.031005859375,70.56300354003906 -160.031005859375,70.56300354003906 -160.031005859375,70.56300354003906 C-160.031005859375,70.8740005493164 -160.0970001220703,117.12699890136719 -160.0970001220703,117.12699890136719 C-160.12899780273438,139.2030029296875 -142.2310028076172,157.1269989013672 -120.15499877929688,157.1269989013672 C-120.15499877929688,157.1269989013672 119.96900177001953,157.1269989013672 119.96900177001953,157.1269989013672 C142.0449981689453,157.1269989013672 159.99200439453125,139.2030029296875 160.02099609375,117.12699890136719 C160.02099609375,117.12699890136719 160.0850067138672,71.06700134277344 160.08900451660156,70.68699645996094 C160.08900451660156,70.68699645996094 160.08900451660156,70.68699645996094 160.08900451660156,70.68699645996094z"/></g><g opacity="1" transform="matrix(1,0,0,1,0,0)"><path stroke-linecap="round" stroke-linejoin="round" fill-opacity="0" class="primary" stroke="rgb(0,0,0)" stroke-opacity="1" stroke-width="12" d=" M160.0970001220703,69.9990005493164 C160.0970001220703,69.9990005493164 110.15599822998047,-8.585000038146973 110.15599822998047,-8.585000038146973 C98.31500244140625,-27.216999053955078 87.0530014038086,-44.98400115966797 85.02300262451172,-48.23500061035156 C85.02300262451172,-48.23500061035156 85.02300262451172,-48.23500061035156 85.02300262451172,-48.23500061035156 C82.99299621582031,-51.486000061035156 78.43199920654297,-54.125 74.84500122070312,-54.125 C74.84500122070312,-54.125 74.84500122070312,-54.125 74.84500122070312,-54.125 C71.25800323486328,-54.125 58.51599884033203,-54.125 46.4109992980957,-54.125 C46.4109992980957,-54.125 48.7130012512207,-54.125 24.476999282836914,-54.125 M-160.031005859375,69.9990005493164 C-160.031005859375,69.9990005493164 -109.75800323486328,-7.605000019073486 -109.75800323486328,-7.605000019073486 C-97.75499725341797,-26.132999420166016 -86.13899993896484,-44.077999114990234 -83.83300018310547,-47.6510009765625 C-83.83300018310547,-47.6510009765625 -83.83300018310547,-47.6510009765625 -83.83300018310547,-47.6510009765625 C-81.5270004272461,-51.2239990234375 -76.51799774169922,-54.125 -72.65499877929688,-54.125 C-72.65499877929688,-54.125 -72.65499877929688,-54.125 -72.65499877929688,-54.125 C-68.79199981689453,-54.125 -56.28799819946289,-54.125 -44.750999450683594,-54.125 C-44.750999450683594,-54.125 -47.12699890136719,-54.125 -23.847000122070312,-54.125"/></g></g><g transform="matrix(3.7826099395751953,0,0,3.7826099395751953,74.02590942382812,-93.67048645019531)" opacity="1" style="display: block;"><g opacity="1" transform="matrix(1,0,0,1,0,0)"><path stroke-linecap="round" stroke-linejoin="round" fill-opacity="0" class="secondary" stroke="rgb(0,0,0)" stroke-opacity="1" stroke-width="3.2" d=" M52.03300094604492,55.60609436035156 C52.03300094604492,55.60609436035156 37.314998626708984,40.8870964050293 37.314998626708984,40.8870964050293 C37.314998626708984,40.8870964050293 22.503999710083008,55.698097229003906 22.503999710083008,55.698097229003906 M37.30799865722656,41.02509689331055 C37.30799865722656,41.02509689331055 37.30799865722656,95.2239990234375 37.30799865722656,95.2239990234375"/></g></g></g></g></svg>