<svg xmlns="http://www.w3.org/2000/svg" viewBox="0 0 413 413"><defs><style>.cls-1{fill:#fff;}</style></defs><title>user_avatar</title><g id="Layer_2" data-name="Layer 2"><g id="Layer_1-2" data-name="Layer 1"><path class="cls-1" d="M205.08,390.83c-30.34-.19-51.74-8.39-72.3-16.28,0,0-21.92-8.41-57.7-38.5a5.07,5.07,0,0,1-1.74-2.57,5.44,5.44,0,0,1,.28-3.08q18.2-55.78,68.57-83.63c1.79-1,2.86-1,4.47.72,33.62,35,86.57,35,120.1,0,1.6-1.67,2.67-1.69,4.48-.68q50.56,28,68.71,84a4.32,4.32,0,0,1-1.47,5.23c-40.38,33.65-69.87,43.14-69.87,43.14C251.13,384.81,231.91,391,205.08,390.83Z"/><ellipse class="cls-1" cx="207.41" cy="173.26" rx="82.92" ry="85.25"/><path class="cls-1" d="M206.5,0C92.45,0,0,92.45,0,206.5S92.45,413,206.5,413,413,320.55,413,206.5,320.55,0,206.5,0Zm.86,388a181,181,0,1,1,181-181A181,181,0,0,1,207.36,388Z"/></g></g></svg>