<svg xmlns="http://www.w3.org/2000/svg" viewBox="0 0 413 413"><defs><style>.cls-1{fill:none;stroke:#417199;stroke-miterlimit:10;stroke-width:27.47px;}.cls-2{fill:#417199;}</style></defs><title>usernavbutton</title><g id="Layer_2" data-name="Layer 2"><g id="Layer_1-2" data-name="Layer 1"><path class="cls-1" d="M205,398.84c-31.69-.2-54-8.76-75.5-17,0,0-22.89-8.78-60.25-40.21a5.3,5.3,0,0,1-1.82-2.68,5.68,5.68,0,0,1,.29-3.22q19-58.24,71.6-87.33c1.87-1,3-1,4.67.75,35.1,36.56,90.4,36.54,125.42,0,1.67-1.75,2.78-1.76,4.68-.71q52.8,29.26,71.74,87.74a4.51,4.51,0,0,1-1.53,5.47c-42.16,35.13-73,45.05-73,45.05C253.09,392.54,233,399,205,398.84Z"/><ellipse class="cls-1" cx="207.44" cy="184.63" rx="86.59" ry="89.02"/><path class="cls-2" d="M206.5,0C92.45,0,0,92.45,0,206.5S92.45,413,206.5,413,413,320.55,413,206.5,320.55,0,206.5,0Zm.86,388a181,181,0,1,1,181-181A181,181,0,0,1,207.36,388Z"/></g></g></svg>